<!DOCTYPE svg PUBLIC "-//W3C//DTD SVG 20010904//EN" "http://www.w3.org/TR/2001/REC-SVG-20010904/DTD/svg10.dtd">
<svg version="1.0" xmlns="http://www.w3.org/2000/svg" width="238px" height="128px" viewBox="0 0 2380 1280" preserveAspectRatio="xMidYMid meet">
<g id="layer1" fill="#181818" stroke="none">
 <path d="M482 1227 c-6 -6 -12 -28 -14 -47 -4 -41 -28 -48 -40 -10 -4 15 -5 4 -3 -28 5 -56 19 -92 36 -92 6 0 3 7 -5 16 -22 22 -20 31 9 36 19 4 25 1 25 -13 0 -13 -5 -17 -17 -13 -14 4 -15 3 -5 -4 21 -15 11 -67 -13 -67 -14 0 -20 6 -19 23 0 16 -2 20 -10 12 -7 -7 -7 -16 1 -28 7 -9 20 -33 30 -52 17 -34 17 -34 24 -10 6 24 7 24 14 5 34 -86 33 -85 65 -85 27 0 33 6 49 43 12 28 15 44 8 49 -13 8 -18 38 -7 38 4 0 6 9 3 19 -6 24 -50 35 -84 22 -13 -5 -18 -10 -11 -10 10 -1 10 -4 -2 -16 -8 -8 -18 -15 -22 -15 -14 0 5 93 25 121 23 32 26 39 11 39 -5 0 -10 -7 -10 -15 0 -8 -4 -15 -10 -15 -12 0 -13 10 -1 29 5 8 16 11 26 8 10 -4 14 -3 9 4 -3 6 -16 8 -29 5 -16 -4 -25 -1 -29 11 -4 9 -4 18 -1 21 3 3 5 1 5 -4 0 -14 42 -15 59 -1 12 10 13 7 8 -25 -7 -46 4 -50 20 -7 7 17 10 29 7 26 -4 -3 -17 6 -30 21 -22 25 -23 26 -17 5 4 -16 1 -23 -10 -23 -17 0 -40 24 -30 33 3 4 4 7 1 7 -3 0 -10 -6 -16 -13z m5 -101 c-5 -14 -49 -15 -54 -1 -1 6 11 10 27 11 19 1 29 -3 27 -10z m98 -103 c16 -36 14 -45 -6 -27 -14 13 -22 14 -32 5 -8 -6 -18 -7 -22 -3 -5 4 -5 1 -1 -6 4 -7 1 -15 -9 -18 -28 -11 -27 3 2 34 32 34 58 40 68 15z m-114 -50 c-8 -15 -10 -15 -11 -2 0 17 10 32 18 25 2 -3 -1 -13 -7 -23z m109 7 c0 -5 -9 -10 -20 -10 -11 0 -20 5 -20 10 0 6 9 10 20 10 11 0 20 -4 20 -10z m-20 -25 c14 0 28 4 32 10 14 19 19 -25 6 -52 -18 -38 -58 -38 -76 0 -13 27 -8 71 6 52 4 -6 18 -10 32 -10z"/>
 <path d="M553 925 c0 -8 4 -12 9 -9 5 3 6 10 3 15 -9 13 -12 11 -12 -6z"/>
 <path d="M962 1215 c-11 -13 -22 -22 -25 -18 -4 3 -1 -9 6 -26 16 -43 27 -39 20 7 -5 32 -4 35 8 25 17 -14 59 -13 59 1 0 5 2 7 5 4 3 -3 3 -12 -1 -21 -4 -12 -13 -15 -29 -11 -13 3 -26 1 -29 -5 -5 -7 -1 -8 9 -4 10 3 21 0 26 -8 12 -19 11 -29 -1 -29 -5 0 -10 7 -10 15 0 8 -4 15 -10 15 -15 0 -12 -7 11 -39 20 -28 39 -121 25 -121 -4 0 -14 7 -22 15 -12 12 -12 15 -2 16 7 0 2 5 -11 10 -34 13 -78 2 -84 -22 -3 -10 -1 -19 3 -19 11 0 6 -30 -7 -38 -7 -5 -4 -21 8 -49 16 -37 22 -43 49 -43 32 0 31 -1 65 85 7 19 8 19 14 -5 7 -24 7 -24 24 10 10 19 23 43 30 52 8 12 8 21 1 28 -8 8 -10 4 -10 -12 1 -17 -5 -23 -19 -23 -24 0 -34 52 -13 67 10 7 9 8 -4 4 -13 -4 -18 0 -18 13 0 14 6 17 25 13 29 -5 31 -14 9 -36 -8 -9 -11 -16 -5 -16 17 0 31 36 36 92 2 32 1 43 -3 28 -12 -39 -36 -31 -40 12 -2 20 -11 42 -20 49 -9 8 -14 9 -10 5 10 -12 -10 -36 -29 -36 -10 0 -14 7 -10 20 7 26 3 25 -21 -5z m125 -90 c-5 -14 -49 -13 -54 1 -2 7 8 11 27 10 16 -1 28 -5 27 -11z m-87 -116 c32 -32 34 -46 5 -35 -10 3 -13 11 -9 18 4 7 4 10 -1 6 -4 -4 -14 -3 -22 3 -10 9 -18 8 -32 -5 -20 -18 -22 -9 -6 27 11 25 29 21 65 -14z m60 -37 c0 -15 -2 -15 -10 -2 -13 20 -13 33 0 25 6 -3 10 -14 10 -23z m-80 8 c0 -5 -9 -10 -20 -10 -11 0 -20 5 -20 10 0 6 9 10 20 10 11 0 20 -4 20 -10z m-20 -25 c14 0 28 4 32 10 14 19 19 -25 6 -52 -9 -19 -21 -28 -38 -28 -17 0 -29 9 -38 28 -13 27 -8 71 6 52 4 -6 18 -10 32 -10z"/>
 <path d="M953 925 c0 -8 4 -12 9 -9 5 3 6 10 3 15 -9 13 -12 11 -12 -6z"/>
 <path d="M1355 1232 c-3 -3 -5 -13 -5 -23 0 -12 -5 -16 -14 -13 -20 8 -76 -26 -76 -46 0 -8 -9 -21 -20 -28 -24 -14 -26 -45 -5 -62 12 -10 15 -9 16 6 0 11 3 14 6 6 3 -7 -1 -19 -7 -27 -10 -12 -10 -18 1 -31 18 -22 34 -50 59 -102 18 -39 23 -43 52 -40 27 3 35 9 47 43 8 22 21 44 28 48 7 4 13 14 13 21 0 8 7 19 15 26 9 7 14 18 12 24 -3 6 1 25 9 43 13 33 17 103 4 82 -6 -8 -9 -8 -13 2 -5 12 -7 12 -15 1 -7 -11 -12 -10 -26 3 -12 13 -14 21 -5 37 6 11 8 23 4 26 -7 8 -73 11 -80 4z m39 -12 c19 -7 26 -6 26 2 0 6 2 9 5 6 3 -3 3 -12 0 -19 -8 -20 -59 -17 -63 4 -4 20 -2 20 32 7z m-50 -36 c9 -3 13 -10 10 -15 -3 -5 2 -9 10 -9 10 0 16 -10 17 -25 1 -14 3 -29 4 -35 1 -5 3 -13 4 -17 0 -4 7 2 15 12 12 16 16 17 30 6 9 -7 16 -27 16 -43 0 -17 4 -27 10 -23 6 3 10 2 10 -4 0 -16 -23 -26 -28 -12 -3 8 -8 6 -18 -6 -13 -17 -13 -17 -14 0 0 9 -4 17 -9 17 -5 0 -12 10 -14 23 -4 19 -4 19 -6 -5 0 -14 4 -28 11 -30 6 -2 8 -10 4 -17 -6 -9 -11 -9 -22 0 -11 9 -19 8 -34 -6 -16 -14 -20 -15 -20 -4 0 8 5 20 11 26 6 6 9 21 6 34 -4 22 -4 22 -6 -3 -1 -23 -6 -28 -25 -28 -19 0 -23 -4 -19 -20 3 -10 8 -18 12 -17 3 1 7 -2 9 -8 2 -5 -1 -11 -7 -13 -6 -2 -13 8 -17 22 -3 13 -12 27 -20 30 -8 3 -14 10 -14 16 0 6 5 8 10 5 6 -4 10 6 10 22 0 16 6 35 13 42 10 11 10 14 0 18 -16 6 -17 35 -1 51 7 7 17 8 30 1 19 -10 25 -45 7 -51 -5 -2 -7 -11 -4 -21 11 -27 21 -12 24 37 1 35 -2 45 -16 49 -10 3 -13 5 -6 6 6 0 18 -2 27 -5z m72 -5 c9 -16 -18 -30 -33 -17 -7 6 -10 14 -7 19 7 13 31 11 40 -2z m14 -35 c0 -10 -31 -36 -37 -31 -10 10 6 37 22 37 8 0 15 -3 15 -6z m58 -24 c3 -20 1 -23 -9 -12 -7 6 -17 12 -22 12 -5 0 -2 -7 6 -15 9 -8 13 -24 10 -36 -5 -18 -8 -15 -19 17 -19 53 -17 61 9 60 16 -1 23 -8 25 -26z m-214 -9 c3 -5 -5 -16 -19 -25 -24 -16 -25 -15 -25 2 0 10 3 22 7 25 9 10 31 9 37 -2z m156 -132 c0 -5 -7 -9 -15 -9 -8 0 -15 7 -15 15 0 9 6 12 15 9 8 -4 15 -10 15 -15z m-36 -8 c14 -15 16 -26 9 -47 -19 -57 -67 -57 -86 0 -10 31 13 66 43 66 9 0 25 -9 34 -19z"/>
 <path d="M1285 1140 c-3 -5 3 -10 15 -10 12 0 18 5 15 10 -3 6 -10 10 -15 10 -5 0 -12 -4 -15 -10z"/>
 <path d="M1730 1233 c-8 -2 -21 -7 -29 -9 -11 -3 -11 -7 -1 -19 10 -12 9 -15 -6 -15 -17 0 -17 -1 2 -15 10 -8 28 -15 39 -15 16 0 15 -3 -9 -15 -16 -8 -39 -12 -52 -9 -21 5 -23 9 -12 23 12 14 11 14 -4 3 -17 -14 -38 -9 -38 9 0 6 4 7 10 4 5 -3 18 -2 27 4 15 8 13 9 -11 7 -35 -4 -53 -30 -35 -52 8 -9 22 -13 38 -9 14 3 33 1 41 -4 12 -9 11 -14 -8 -34 -12 -13 -22 -35 -22 -49 0 -25 27 -58 48 -58 15 0 16 -16 2 -25 -6 -4 -5 -14 2 -28 6 -12 14 -29 18 -37 4 -9 21 -15 41 -15 30 0 35 4 45 33 5 18 13 29 17 26 4 -4 7 0 7 9 0 10 5 17 11 17 6 0 9 -7 5 -15 -9 -26 1 -16 24 20 15 24 21 48 19 78 -2 23 1 49 6 56 5 9 2 18 -8 26 -13 9 -14 14 -4 24 9 10 8 16 -8 29 -11 9 -20 24 -20 32 0 20 -94 37 -135 23z m129 -19 c3 -3 -1 -10 -7 -16 -10 -10 -17 -10 -35 1 -22 14 -22 14 -3 -8 15 -16 16 -21 5 -21 -8 0 -21 6 -28 13 -11 10 -13 10 -7 0 4 -7 2 -13 -3 -13 -14 0 -14 17 0 26 7 4 1 12 -17 20 -27 12 -24 13 31 7 33 -3 62 -7 64 -9z m-119 -4 c24 -13 16 -35 -13 -37 -12 0 -16 1 -9 4 10 4 9 9 -4 24 -19 21 -5 26 26 9z m145 -40 c4 -6 2 -17 -4 -24 -6 -7 -8 -16 -4 -19 3 -4 2 -7 -4 -7 -19 0 -23 28 -5 34 9 2 6 3 -8 2 -14 -1 -31 -5 -37 -9 -20 -12 -15 4 5 19 21 16 48 18 57 4z m-71 -59 c4 -7 1 -8 -8 -5 -9 3 -13 11 -9 17 4 6 0 8 -10 4 -20 -8 -23 13 -5 31 10 10 14 8 19 -12 4 -13 10 -29 13 -35z m-169 21 c-7 -8 -35 7 -35 18 0 6 7 6 20 -2 10 -7 17 -14 15 -16z m89 -4 c-5 -9 -2 -9 9 1 14 11 17 11 17 0 0 -7 10 -23 22 -36 12 -13 16 -23 9 -23 -7 0 -10 -4 -7 -8 2 -4 -4 -9 -15 -9 -10 -1 -19 3 -19 8 0 6 5 7 10 4 6 -3 10 -1 10 5 0 7 -6 10 -12 8 -26 -9 -13 -33 20 -36 18 -2 30 -8 26 -13 -3 -5 -26 -7 -55 -3 -33 4 -54 3 -64 -6 -13 -11 -15 -8 -15 19 0 36 37 66 73 58 l22 -6 -22 16 c-24 16 -30 33 -12 33 5 0 7 -6 3 -12z m107 -11 c-13 -13 -26 -3 -16 12 3 6 11 8 17 5 6 -4 6 -10 -1 -17z m43 -29 c10 -40 6 -94 -9 -114 -14 -19 -14 -19 -15 3 0 12 6 24 13 26 6 3 0 5 -15 4 -27 -1 -41 -17 -15 -17 8 0 7 -4 -3 -10 -25 -16 -31 -12 -24 18 5 22 4 25 -7 15 -7 -7 -18 -13 -23 -13 -6 0 0 7 12 16 17 12 20 19 12 29 -14 17 -2 45 24 55 34 14 43 11 50 -12z m-117 -83 c2 -6 -15 -11 -37 -11 -29 -1 -40 3 -40 13 0 17 71 15 77 -2z m30 -28 c-5 -16 -64 -19 -64 -4 0 7 16 13 34 14 23 1 33 -2 30 -10z m18 -39 c-4 -13 -9 -31 -11 -40 -4 -12 -15 -18 -35 -18 -19 0 -31 6 -35 18 -3 9 -9 25 -14 34 -8 14 -4 17 31 16 22 0 43 2 46 6 14 14 24 5 18 -16z"/>
 <path d="M2080 1232 c-21 -4 -35 -13 -35 -22 0 -8 -9 -23 -20 -32 -16 -13 -17 -19 -8 -29 10 -10 9 -15 -4 -24 -10 -8 -13 -17 -8 -26 5 -7 8 -33 6 -56 -2 -30 4 -54 19 -78 23 -36 33 -46 24 -20 -4 8 -1 15 5 15 6 0 11 -7 11 -17 0 -9 3 -13 7 -9 4 3 12 -8 17 -26 10 -29 15 -33 45 -33 20 0 37 6 41 15 4 8 12 25 18 37 7 14 8 24 2 28 -15 9 -12 25 3 25 21 0 47 34 47 60 0 13 -10 34 -22 47 -19 20 -20 25 -8 34 8 5 27 7 41 4 16 -4 30 0 38 9 18 22 0 48 -35 52 -24 2 -26 1 -11 -7 9 -6 22 -7 27 -4 6 3 10 2 10 -4 0 -18 -21 -23 -38 -9 -15 11 -16 11 -4 -3 11 -14 9 -18 -12 -23 -13 -3 -36 1 -52 9 -24 12 -25 15 -9 15 11 0 29 7 39 15 19 14 19 15 2 15 -15 0 -16 3 -7 14 7 9 8 17 2 20 -16 10 -94 15 -131 8z m66 -16 c-18 -8 -24 -16 -17 -20 14 -9 14 -26 0 -26 -5 0 -7 6 -3 13 6 10 4 10 -7 0 -7 -7 -20 -13 -28 -13 -11 0 -10 5 5 22 15 18 16 20 2 9 -18 -14 -48 -9 -48 8 0 9 40 16 100 19 24 0 24 0 -4 -12z m50 -15 c-13 -15 -14 -20 -4 -24 7 -3 3 -4 -9 -4 -44 2 -29 46 16 47 11 0 10 -4 -3 -19z m-113 -35 c19 -15 24 -31 5 -19 -7 4 -24 8 -38 9 -14 1 -17 0 -8 -2 18 -6 14 -34 -5 -34 -6 0 -7 3 -4 7 4 3 2 12 -4 19 -24 29 20 46 54 20z m57 -32 c0 -8 -6 -11 -17 -7 -10 4 -14 2 -10 -4 4 -6 1 -13 -6 -16 -11 -4 -11 2 -3 28 8 26 14 31 23 23 7 -6 13 -17 13 -24z m155 7 c-3 -6 -14 -11 -23 -11 -13 0 -13 2 4 14 21 15 30 14 19 -3z m-208 -27 c-9 -9 -28 6 -21 18 4 6 10 6 17 -1 6 -6 8 -13 4 -17z m89 14 c-4 6 -2 12 3 12 18 0 12 -17 -11 -33 l-23 -16 22 6 c36 8 73 -22 73 -58 0 -27 -2 -30 -15 -19 -10 9 -31 10 -64 6 -29 -4 -52 -2 -55 3 -4 5 8 11 26 13 33 3 46 27 21 36 -7 2 -13 -1 -13 -8 0 -6 5 -8 10 -5 6 3 10 2 10 -4 0 -5 -9 -9 -19 -8 -11 0 -17 5 -15 9 3 4 0 8 -7 8 -7 0 -3 10 9 23 12 13 22 29 22 36 0 11 3 11 17 0 11 -10 14 -10 9 -1z m-103 -27 c29 -11 42 -38 27 -56 -8 -10 -5 -17 12 -29 12 -9 18 -16 12 -16 -5 0 -16 6 -23 13 -11 10 -12 7 -7 -15 7 -30 1 -34 -24 -18 -10 6 -11 10 -2 10 25 0 11 16 -15 17 -16 1 -22 -1 -15 -4 6 -2 12 -14 12 -26 -1 -22 -1 -22 -15 -3 -15 20 -19 74 -9 114 7 25 12 26 47 13z m147 -95 c0 -9 -12 -13 -40 -12 -39 1 -47 6 -33 19 13 13 73 7 73 -7z m-43 -33 c0 -15 -59 -12 -64 4 -3 8 7 11 30 10 18 -1 34 -7 34 -14z m-10 -25 c28 1 31 -1 24 -16 -5 -9 -12 -25 -15 -34 -8 -28 -63 -24 -71 5 -18 62 -18 59 7 51 12 -4 38 -6 55 -6z"/>
 <path d="M631 1217 c-1 -11 -6 -15 -13 -11 -7 4 -8 3 -4 -4 3 -6 -2 -16 -13 -21 -23 -13 -22 -26 4 -66 13 -19 21 -49 22 -85 1 -30 6 -66 11 -79 8 -24 9 -24 25 10 10 19 23 42 30 51 8 12 8 21 1 28 -8 8 -10 4 -10 -12 1 -17 -5 -23 -19 -23 -16 0 -20 7 -22 35 -1 19 -5 51 -8 71 -7 36 -6 36 19 32 20 -4 25 -10 21 -22 -16 -38 -23 -71 -15 -71 4 0 11 15 15 33 9 44 15 158 6 127 -4 -14 -13 -25 -21 -25 -8 0 -17 11 -21 25 -5 17 -7 19 -8 7z m49 -54 c0 -14 -19 -17 -44 -7 -26 10 -18 21 14 20 17 -1 30 -7 30 -13z m-66 -9 c8 -21 8 -24 -3 -24 -5 0 -11 9 -14 20 -6 24 8 27 17 4z m46 -180 c0 -12 -2 -12 -14 -2 -8 7 -12 16 -9 21 7 11 23 -2 23 -19z"/>
 <path d="M650 1220 c0 -5 5 -10 10 -10 6 0 10 5 10 10 0 6 -4 10 -10 10 -5 0 -10 -4 -10 -10z"/>
 <path d="M835 1175 c4 -74 15 -125 25 -125 8 0 1 33 -15 71 -4 12 1 18 21 22 25 4 26 4 19 -32 -3 -20 -7 -52 -8 -71 -2 -28 -6 -35 -22 -35 -14 0 -20 6 -19 23 0 16 -2 20 -10 12 -7 -7 -7 -16 1 -28 7 -9 20 -32 30 -51 16 -34 17 -34 25 -10 5 13 10 49 11 79 1 36 9 66 22 85 26 40 27 53 4 66 -11 5 -16 15 -13 21 4 7 3 8 -4 4 -7 -4 -12 0 -13 11 -1 12 -3 10 -8 -7 -4 -14 -13 -25 -21 -25 -8 0 -17 11 -21 25 -4 14 -6 -1 -4 -35z m65 -5 c0 -9 -25 -20 -46 -20 -28 0 -13 25 16 26 17 1 30 -2 30 -6z m23 -20 c-3 -11 -9 -20 -14 -20 -11 0 -11 3 -3 24 9 23 23 20 17 -4z m-46 -175 c-15 -16 -22 -11 -13 10 3 9 10 13 16 10 6 -4 5 -11 -3 -20z"/>
 <path d="M850 1220 c0 -5 5 -10 10 -10 6 0 10 5 10 10 0 6 -4 10 -10 10 -5 0 -10 -4 -10 -10z"/>
 <path d="M440 1180 c0 -5 5 -10 10 -10 6 0 10 5 10 10 0 6 -4 10 -10 10 -5 0 -10 -4 -10 -10z"/>
 <path d="M1060 1180 c0 -5 5 -10 10 -10 6 0 10 5 10 10 0 6 -4 10 -10 10 -5 0 -10 -4 -10 -10z"/>
 <path d="M540 1109 c0 -5 -5 -7 -12 -3 -6 4 -8 3 -5 -3 8 -12 62 -11 74 1 4 5 3 6 -4 2 -7 -4 -13 -2 -13 3 0 6 -9 11 -20 11 -11 0 -20 -5 -20 -11z"/>
 <path d="M940 1109 c0 -5 -5 -7 -12 -3 -6 4 -8 3 -5 -3 8 -12 62 -11 74 1 4 5 3 6 -4 2 -7 -4 -13 -2 -13 3 0 6 -9 11 -20 11 -11 0 -20 -5 -20 -11z"/>
 <path d="M482 827 c-6 -6 -12 -28 -14 -47 -4 -41 -28 -48 -40 -10 -4 15 -5 4 -3 -28 5 -56 19 -92 36 -92 6 0 3 7 -5 16 -22 22 -20 31 9 36 19 4 25 1 25 -13 0 -13 -5 -17 -17 -13 -14 4 -15 3 -5 -4 21 -15 11 -67 -13 -67 -14 0 -20 6 -19 23 0 16 -2 20 -10 12 -7 -7 -7 -16 1 -28 7 -9 20 -33 30 -52 17 -34 17 -34 24 -10 6 24 7 24 14 5 34 -86 33 -85 65 -85 32 0 31 -1 65 85 7 19 8 19 14 -5 7 -24 7 -24 24 10 10 19 23 43 30 52 8 12 8 21 1 28 -8 8 -10 4 -10 -12 1 -17 -5 -23 -19 -23 -16 0 -20 7 -22 35 -1 19 -5 51 -8 71 -7 36 -6 36 19 32 20 -4 25 -10 21 -22 -16 -38 -23 -71 -15 -71 4 0 11 15 15 33 9 44 15 158 6 127 -4 -14 -13 -25 -21 -25 -8 0 -17 11 -21 25 -5 17 -7 19 -8 7 -1 -11 -6 -15 -13 -11 -7 4 -8 3 -4 -4 3 -6 -2 -16 -13 -21 -23 -13 -22 -26 3 -64 22 -33 34 -117 17 -117 -6 0 -11 9 -11 19 0 12 -9 21 -25 25 -38 10 -75 -3 -75 -25 0 -10 -5 -19 -11 -19 -19 0 -4 89 20 121 23 32 26 39 11 39 -5 0 -10 -7 -10 -15 0 -8 -4 -15 -10 -15 -12 0 -13 10 -1 29 5 8 16 11 26 8 10 -4 14 -3 9 4 -3 6 -16 8 -29 5 -16 -4 -25 -1 -29 11 -4 9 -4 18 -1 21 3 3 5 1 5 -4 0 -14 42 -15 59 -1 12 10 13 7 8 -25 -7 -46 4 -50 20 -7 7 17 10 29 7 26 -4 -3 -17 6 -30 21 -22 25 -23 26 -17 5 4 -16 1 -23 -10 -23 -17 0 -40 24 -30 33 3 4 4 7 1 7 -3 0 -10 -6 -16 -13z m198 -64 c0 -14 -19 -17 -44 -7 -26 10 -18 21 14 20 17 -1 30 -7 30 -13z m-66 -9 c8 -21 8 -24 -3 -24 -5 0 -11 9 -14 20 -6 24 8 27 17 4z m-127 -28 c-5 -14 -49 -15 -54 -1 -1 6 11 10 27 11 19 1 29 -3 27 -10z m105 -111 c11 -15 28 -24 41 -22 14 1 22 -4 24 -18 4 -19 3 -19 -8 -1 -8 14 -13 15 -19 6 -10 -17 -44 -4 -34 12 4 7 4 10 -1 6 -4 -4 -14 -3 -22 3 -9 8 -17 8 -26 0 -8 -6 -18 -7 -22 -3 -5 4 -5 1 -1 -6 10 -16 -24 -29 -34 -12 -6 9 -11 8 -19 -6 -11 -18 -12 -18 -8 1 2 14 10 19 25 18 13 -2 28 7 39 22 23 31 40 31 65 0z m-12 -35 c0 -5 -9 -10 -20 -10 -11 0 -20 5 -20 10 0 6 9 10 20 10 11 0 20 -4 20 -10z m-20 -25 c14 0 28 4 32 10 14 19 19 -25 6 -52 -9 -19 -21 -28 -38 -28 -17 0 -29 9 -38 28 -13 27 -8 71 6 52 4 -6 18 -10 32 -10z"/>
 <path d="M553 525 c0 -8 4 -12 9 -9 5 3 6 10 3 15 -9 13 -12 11 -12 -6z"/>
 <path d="M962 815 c-11 -13 -22 -22 -25 -18 -4 3 -1 -9 6 -26 16 -43 27 -39 20 7 -5 32 -4 35 8 25 17 -14 59 -13 59 1 0 5 2 7 5 4 3 -3 3 -12 -1 -21 -4 -12 -13 -15 -29 -11 -13 3 -26 1 -29 -5 -5 -7 -1 -8 9 -4 10 3 21 0 26 -8 12 -19 11 -29 -1 -29 -5 0 -10 7 -10 15 0 8 -4 15 -10 15 -15 0 -12 -7 11 -39 24 -32 39 -121 20 -121 -6 0 -11 9 -11 19 0 22 -37 35 -75 25 -16 -4 -25 -13 -25 -25 0 -10 -5 -19 -11 -19 -17 0 -5 84 17 117 25 38 26 51 3 64 -11 5 -16 15 -13 21 4 7 3 8 -4 4 -7 -4 -12 0 -13 11 -1 12 -3 10 -8 -7 -4 -14 -13 -25 -21 -25 -8 0 -17 11 -21 25 -9 31 -3 -83 6 -127 4 -18 11 -33 15 -33 8 0 1 33 -15 71 -4 12 1 18 21 22 25 4 26 4 19 -32 -3 -20 -7 -52 -8 -71 -2 -28 -6 -35 -22 -35 -14 0 -20 6 -19 23 0 16 -2 20 -10 12 -7 -7 -7 -16 1 -28 7 -9 20 -33 30 -52 17 -34 17 -34 24 -10 6 24 7 24 14 5 34 -86 33 -85 65 -85 32 0 31 -1 65 85 7 19 8 19 14 -5 7 -24 7 -24 24 10 10 19 23 43 30 52 8 12 8 21 1 28 -8 8 -10 4 -10 -12 1 -17 -5 -23 -19 -23 -24 0 -34 52 -13 67 10 7 9 8 -4 4 -13 -4 -18 0 -18 13 0 14 6 17 25 13 29 -5 31 -14 9 -36 -8 -9 -11 -16 -5 -16 17 0 31 36 36 92 2 32 1 43 -3 28 -12 -39 -36 -31 -40 12 -2 20 -11 42 -20 49 -9 8 -14 9 -10 5 10 -12 -10 -36 -29 -36 -10 0 -14 7 -10 20 7 26 3 25 -21 -5z m-62 -45 c0 -9 -25 -20 -46 -20 -28 0 -13 25 16 26 17 1 30 -2 30 -6z m23 -20 c-3 -11 -9 -20 -14 -20 -11 0 -11 3 -3 24 9 23 23 20 17 -4z m164 -25 c-5 -14 -49 -13 -54 1 -2 7 8 11 27 10 16 -1 28 -5 27 -11z m-95 -110 c11 -15 28 -24 41 -22 14 1 22 -4 24 -18 4 -19 3 -19 -8 -1 -8 14 -13 15 -19 6 -10 -17 -44 -4 -34 12 4 7 4 10 -1 6 -4 -4 -14 -3 -22 3 -9 8 -17 8 -26 0 -8 -6 -18 -7 -22 -3 -5 4 -5 1 -1 -6 10 -16 -24 -29 -34 -12 -6 9 -11 8 -19 -6 -11 -18 -12 -18 -8 1 2 14 10 19 25 18 13 -2 28 7 39 22 23 31 40 31 65 0z m-12 -35 c0 -5 -9 -10 -20 -10 -11 0 -20 5 -20 10 0 6 9 10 20 10 11 0 20 -4 20 -10z m-20 -25 c14 0 28 4 32 10 14 19 19 -25 6 -52 -9 -19 -21 -28 -38 -28 -17 0 -29 9 -38 28 -13 27 -8 71 6 52 4 -6 18 -10 32 -10z"/>
 <path d="M953 525 c0 -8 4 -12 9 -9 5 3 6 10 3 15 -9 13 -12 11 -12 -6z"/>
 <path d="M1284 829 c-3 -5 0 -17 6 -28 13 -25 -17 -62 -31 -39 -8 11 -11 11 -18 -1 -7 -11 -9 -11 -13 0 -3 8 -5 -1 -6 -19 0 -18 5 -47 12 -65 8 -18 12 -37 9 -43 -2 -6 3 -17 12 -24 8 -7 15 -18 15 -26 0 -7 6 -17 13 -21 7 -4 20 -26 28 -48 12 -34 20 -40 47 -43 29 -3 34 1 52 40 25 52 41 80 59 102 11 13 11 19 1 31 -6 8 -10 20 -7 27 3 8 6 5 6 -6 1 -15 4 -16 16 -6 21 17 19 48 -5 62 -11 7 -20 20 -20 28 0 19 -56 54 -75 46 -9 -3 -15 3 -17 17 -2 17 -10 21 -41 23 -21 0 -40 -3 -43 -7z m42 -8 c34 12 36 12 32 -8 -6 -31 -69 -20 -67 12 0 6 3 5 5 -2 4 -9 13 -9 30 -2z m18 -40 c3 -5 0 -13 -7 -19 -15 -13 -42 1 -33 17 9 13 33 15 40 2z m53 2 c-14 -4 -17 -14 -16 -49 3 -49 13 -64 24 -37 3 10 1 19 -4 21 -18 6 -12 41 7 51 13 7 23 6 30 -1 16 -16 15 -45 0 -51 -10 -4 -10 -7 0 -18 6 -7 12 -26 12 -42 0 -16 4 -26 10 -22 6 3 10 1 10 -5 0 -6 -6 -13 -14 -16 -8 -3 -17 -17 -20 -30 -4 -14 -11 -24 -17 -22 -6 2 -9 8 -7 13 2 6 6 9 9 8 4 -1 9 7 12 17 4 16 0 20 -19 20 -19 0 -24 5 -25 28 -2 25 -2 25 -6 3 -3 -13 0 -28 6 -34 6 -6 11 -18 11 -26 0 -11 -4 -10 -20 4 -15 14 -23 15 -34 6 -11 -9 -16 -9 -22 0 -4 7 -2 15 4 17 7 2 11 16 11 30 -2 24 -2 24 -6 5 -2 -13 -9 -23 -14 -23 -5 0 -9 -8 -9 -17 -1 -17 -1 -17 -14 0 -10 12 -15 14 -18 6 -5 -14 -28 -4 -28 12 0 6 5 7 10 4 6 -4 10 6 10 23 0 16 7 36 16 43 14 11 18 10 30 -6 8 -10 15 -16 15 -12 1 4 3 12 4 17 1 6 3 21 4 35 1 15 7 25 17 25 8 0 13 4 10 9 -7 10 11 20 34 19 10 0 9 -2 -3 -5z m-117 -48 c0 -5 -6 -27 -14 -49 -11 -32 -14 -35 -19 -17 -3 12 1 28 10 36 8 8 11 15 6 15 -5 0 -14 -5 -21 -12 -9 -9 -12 -7 -12 8 0 12 3 23 6 27 10 9 44 4 44 -8z m47 0 c8 -23 -4 -30 -22 -12 -19 20 -19 27 0 27 9 0 18 -7 22 -15z m161 -43 c4 -23 3 -23 -22 -7 -27 18 -26 38 2 33 10 -2 18 -14 20 -26z m-168 -107 c0 -8 -7 -15 -15 -15 -26 0 -18 20 13 29 1 1 2 -6 2 -14z m74 -14 c14 -15 16 -26 9 -47 -19 -57 -67 -57 -86 0 -10 31 13 66 43 66 9 0 25 -9 34 -19z"/>
 <path d="M1405 740 c-3 -5 3 -10 15 -10 12 0 18 5 15 10 -3 6 -10 10 -15 10 -5 0 -12 -4 -15 -10z"/>
 <path d="M1675 831 c-3 -6 4 -15 15 -21 11 -6 20 -18 20 -26 0 -8 -4 -12 -10 -9 -5 3 -10 -2 -10 -11 0 -10 -3 -14 -7 -11 -3 4 -12 2 -19 -4 -14 -11 -34 -4 -34 12 0 6 4 7 10 4 5 -3 18 -2 27 4 15 8 13 9 -11 7 -35 -4 -53 -30 -35 -52 8 -10 22 -12 45 -8 39 7 44 -4 14 -31 -11 -10 -20 -30 -20 -45 0 -27 27 -60 48 -60 15 0 16 -16 2 -25 -6 -4 -5 -14 2 -28 6 -12 14 -29 18 -37 4 -9 21 -15 41 -15 30 0 35 4 45 33 5 18 13 29 17 26 4 -4 7 0 7 9 0 10 5 17 11 17 6 0 9 -7 5 -15 -9 -26 1 -16 24 20 15 24 21 48 19 78 -2 23 0 48 4 54 9 15 -8 59 -26 70 -8 4 -16 17 -18 28 -3 12 -14 21 -29 23 -14 2 -29 8 -34 13 -13 12 -113 12 -121 0z m90 -11 c-25 -6 -26 -8 -7 -9 13 0 32 -10 44 -21 11 -10 34 -22 49 -25 34 -8 46 -22 29 -38 -9 -9 -11 -9 -8 1 4 18 -39 35 -48 20 -4 -6 -3 -8 4 -4 25 15 22 -18 -3 -39 -17 -12 -26 -28 -23 -36 4 -10 -3 -15 -23 -15 -16 -1 -29 2 -29 7 0 5 3 8 8 8 4 -1 14 -1 22 0 13 1 13 2 0 11 -13 8 -12 11 3 22 14 10 17 21 12 41 -4 15 -11 25 -15 22 -12 -7 -60 13 -60 25 0 6 7 6 20 -2 15 -10 22 -10 31 -1 9 9 7 11 -9 6 -15 -3 -24 0 -28 11 -3 9 -10 13 -15 10 -5 -3 -17 -1 -26 5 -13 7 -2 9 42 9 47 -1 53 -3 30 -8z m83 -22 c-2 -6 -10 -13 -16 -14 -9 -2 -9 -1 -1 3 8 4 7 8 -2 14 -11 7 -10 9 4 9 10 0 17 -5 15 -12z m-65 -57 c5 -5 3 -12 -4 -16 -7 -5 -17 -1 -26 10 -7 11 -13 14 -13 9 0 -6 5 -15 12 -22 15 -15 18 -51 4 -49 -6 1 -11 -5 -11 -13 0 -10 12 -16 33 -18 18 -2 30 -8 26 -13 -3 -5 -26 -7 -55 -3 -33 4 -54 3 -64 -6 -13 -11 -15 -8 -15 18 0 34 43 73 70 64 13 -4 13 -3 2 11 -8 9 -19 14 -27 11 -15 -6 -29 12 -20 26 7 12 74 5 88 -9z m-118 -1 c9 8 15 8 15 2 0 -13 -36 -26 -50 -17 -5 3 -10 11 -10 17 0 7 6 6 15 -2 12 -10 18 -10 30 0z m219 -52 c10 -40 6 -94 -9 -114 -14 -19 -14 -19 -15 3 0 12 6 24 13 26 6 3 0 5 -15 4 -27 -1 -41 -17 -15 -17 8 0 7 -4 -3 -10 -25 -16 -31 -12 -24 18 5 22 4 25 -7 15 -7 -7 -18 -13 -23 -13 -6 0 -1 7 11 15 16 11 21 23 18 46 -3 24 0 32 18 39 35 14 44 12 51 -12z m-117 -83 c2 -6 -15 -11 -37 -11 -29 -1 -40 3 -40 13 0 17 71 15 77 -2z m30 -28 c-5 -16 -64 -19 -64 -4 0 7 16 13 34 14 23 1 33 -2 30 -10z m18 -39 c-4 -13 -9 -31 -11 -40 -4 -12 -15 -18 -35 -18 -19 0 -31 6 -35 18 -3 9 -9 25 -14 34 -8 14 -4 17 31 16 22 0 43 2 46 6 14 14 24 5 18 -16z"/>
 <path d="M2115 831 c-6 -5 -21 -11 -35 -13 -15 -2 -26 -11 -29 -23 -2 -11 -10 -24 -18 -28 -18 -11 -35 -55 -26 -70 4 -6 6 -31 4 -54 -2 -30 4 -54 19 -78 23 -36 33 -46 24 -20 -4 8 -1 15 5 15 6 0 11 -7 11 -17 0 -9 3 -13 7 -9 4 3 12 -8 17 -26 10 -29 15 -33 45 -33 20 0 37 6 41 15 4 8 12 25 18 37 7 14 8 24 2 28 -15 9 -12 25 3 25 21 0 47 34 47 62 0 14 -9 33 -20 43 -30 27 -25 38 14 31 23 -4 37 -2 45 8 18 22 0 48 -35 52 -24 2 -26 1 -11 -7 9 -6 22 -7 27 -4 6 3 10 2 10 -4 0 -16 -20 -23 -34 -12 -7 6 -16 8 -19 4 -4 -3 -7 1 -7 11 0 9 -4 14 -10 11 -5 -3 -10 1 -10 9 0 8 9 20 20 26 11 6 18 15 15 21 -8 12 -108 12 -120 0z m102 -12 c-9 -6 -21 -8 -26 -5 -5 3 -12 -1 -15 -10 -4 -11 -13 -14 -28 -11 -16 5 -18 3 -9 -6 9 -9 16 -9 31 1 13 8 20 8 20 2 0 -12 -48 -32 -60 -25 -4 3 -11 -7 -15 -22 -5 -20 -2 -31 12 -41 15 -11 16 -14 3 -22 -13 -9 -13 -10 0 -11 8 -1 18 -1 23 0 4 0 7 -3 7 -8 0 -5 -13 -8 -29 -7 -20 0 -27 5 -23 15 3 8 -6 24 -23 36 -25 21 -28 54 -3 39 7 -4 8 -2 4 4 -9 15 -52 -2 -48 -20 3 -10 1 -10 -8 -1 -17 16 -5 30 29 38 15 3 38 15 49 25 12 11 31 21 44 21 19 1 18 3 -7 9 -23 5 -17 7 30 8 44 0 55 -2 42 -9z m-136 -16 c-11 -5 -11 -7 0 -15 12 -8 12 -9 0 -6 -22 6 -25 28 -4 27 12 0 14 -2 4 -6z m134 -63 c0 -8 -8 -15 -17 -15 -10 0 -23 -6 -30 -14 -11 -11 -10 -13 2 -9 27 9 70 -30 70 -64 0 -26 -2 -29 -15 -18 -10 9 -31 10 -64 6 -29 -4 -52 -2 -55 3 -4 5 8 11 26 13 21 2 33 8 33 18 0 8 -5 14 -11 13 -14 -2 -11 34 4 49 7 7 12 16 12 22 0 5 -6 1 -14 -10 -12 -15 -17 -16 -27 -7 -10 10 -7 14 11 21 36 14 75 9 75 -8z m60 0 c9 8 15 9 15 2 0 -6 -5 -14 -10 -17 -14 -9 -50 4 -50 17 0 6 6 6 15 -2 12 -10 18 -10 30 0z m-201 -40 c21 -7 24 -15 21 -40 -3 -22 2 -34 18 -45 12 -8 17 -15 11 -15 -5 0 -16 6 -23 13 -11 10 -12 7 -7 -15 7 -30 1 -34 -24 -18 -10 6 -11 10 -2 10 25 0 11 16 -15 17 -16 1 -22 -1 -15 -4 6 -2 12 -14 12 -26 -1 -22 -1 -22 -15 -3 -15 20 -19 74 -9 114 7 25 12 26 48 12z m146 -94 c0 -9 -12 -13 -40 -12 -39 1 -47 6 -33 19 13 13 73 7 73 -7z m-43 -33 c0 -15 -59 -12 -64 4 -3 8 7 11 30 10 18 -1 34 -7 34 -14z m-10 -25 c28 1 31 -1 24 -16 -5 -9 -12 -25 -15 -34 -8 -28 -63 -24 -71 5 -18 62 -18 59 7 51 12 -4 38 -6 55 -6z"/>
 <path d="M650 820 c0 -5 5 -10 10 -10 6 0 10 5 10 10 0 6 -4 10 -10 10 -5 0 -10 -4 -10 -10z"/>
 <path d="M850 820 c0 -5 5 -10 10 -10 6 0 10 5 10 10 0 6 -4 10 -10 10 -5 0 -10 -4 -10 -10z"/>
 <path d="M440 780 c0 -5 5 -10 10 -10 6 0 10 5 10 10 0 6 -4 10 -10 10 -5 0 -10 -4 -10 -10z"/>
 <path d="M1060 780 c0 -5 5 -10 10 -10 6 0 10 5 10 10 0 6 -4 10 -10 10 -5 0 -10 -4 -10 -10z"/>
 <path d="M540 709 c0 -5 -5 -7 -12 -3 -6 4 -8 3 -5 -3 8 -12 62 -11 74 1 4 5 3 6 -4 2 -7 -4 -13 -2 -13 3 0 6 -9 11 -20 11 -11 0 -20 -5 -20 -11z"/>
 <path d="M940 709 c0 -5 -5 -7 -12 -3 -6 4 -8 3 -5 -3 8 -12 62 -11 74 1 4 5 3 6 -4 2 -7 -4 -13 -2 -13 3 0 6 -9 11 -20 11 -11 0 -20 -5 -20 -11z"/>
 <path d="M1669 439 c-8 -5 -9 -9 -3 -9 6 0 24 -11 40 -25 16 -14 37 -25 47 -25 9 0 17 -4 17 -9 0 -5 -9 -7 -20 -4 -11 3 -20 0 -20 -6 0 -6 -7 -11 -15 -11 -8 0 -15 5 -15 10 0 6 -7 10 -16 10 -12 0 -14 3 -6 13 8 9 4 18 -13 33 -20 18 -25 19 -30 6 -3 -8 1 -22 10 -32 8 -9 15 -23 15 -31 0 -11 -2 -12 -9 -1 -6 11 -10 10 -15 -5 -5 -12 -1 -23 13 -34 20 -16 20 -17 1 -34 -35 -32 -15 -105 28 -105 15 0 16 -16 2 -25 -6 -4 -5 -14 2 -28 6 -12 14 -29 18 -37 4 -9 21 -15 41 -15 30 0 35 4 45 33 5 18 13 29 17 26 4 -4 7 0 7 9 0 10 5 17 11 17 6 0 9 -7 5 -15 -9 -26 1 -16 24 20 15 24 21 48 19 78 -2 23 1 49 5 56 5 7 4 17 -2 23 -6 6 -8 16 -6 23 6 14 -12 30 -42 37 -29 7 -72 -72 -57 -105 9 -20 8 -22 -18 -23 -16 -1 -29 2 -29 7 0 4 9 6 20 4 12 -2 18 0 15 6 -4 5 -11 7 -16 3 -6 -3 -7 5 -3 23 4 15 7 36 6 46 0 13 4 16 17 12 12 -4 21 0 25 11 4 9 5 18 4 19 -2 1 -28 14 -58 28 -53 25 -54 26 -22 27 18 0 31 -3 29 -7 -3 -5 10 -16 29 -25 24 -13 34 -14 34 -5 0 8 4 7 10 -3 8 -12 10 -12 16 3 12 31 -13 45 -79 45 -35 0 -70 -4 -78 -9z m139 -11 c-3 -7 -13 -13 -23 -13 -10 0 -20 6 -22 13 -3 7 5 12 22 12 17 0 25 -5 23 -12z m-133 -36 c-7 -8 -35 7 -35 18 0 6 7 6 20 -2 10 -7 17 -14 15 -16z m180 -32 c9 -14 -14 -42 -28 -33 -6 4 -3 10 9 15 18 7 18 8 -1 7 -31 -2 -37 0 -30 11 8 13 42 13 50 0z m-142 -16 c14 -5 18 -14 14 -33 -14 -66 -14 -66 21 -69 18 -2 30 -8 26 -13 -3 -5 -26 -7 -55 -3 -33 4 -54 3 -64 -6 -13 -11 -15 -8 -15 18 0 34 43 73 70 64 12 -4 13 -2 2 9 -7 7 -24 13 -39 14 -15 0 -28 7 -30 15 -4 12 -3 12 5 2 7 -11 10 -10 16 3 3 9 12 14 19 11 6 -3 20 -9 30 -12z m91 -31 c-18 -14 -17 -14 12 -8 27 5 32 3 38 -17 10 -40 6 -94 -9 -114 -14 -19 -14 -19 -15 3 0 12 6 24 13 26 6 3 0 5 -15 4 -27 -1 -41 -17 -15 -17 8 0 7 -4 -3 -10 -25 -16 -31 -12 -24 18 5 22 4 25 -7 15 -7 -7 -18 -13 -23 -13 -6 0 -1 7 10 15 16 10 21 23 19 52 -2 44 11 77 27 67 7 -5 5 -12 -8 -21z m-67 -108 c2 -6 -15 -11 -37 -11 -29 -1 -40 3 -40 13 0 17 71 15 77 -2z m30 -28 c-5 -16 -64 -19 -64 -4 0 7 16 13 34 14 23 1 33 -2 30 -10z m18 -39 c-4 -13 -9 -31 -11 -40 -7 -25 -63 -25 -70 0 -3 9 -9 25 -14 34 -8 14 -4 17 31 16 22 0 43 2 46 6 14 14 24 5 18 -16z"/>
 <path d="M2089 434 c-6 -8 -8 -22 -5 -31 6 -15 8 -15 16 -3 6 10 10 11 10 3 0 -9 10 -8 34 5 19 9 32 20 29 25 -2 4 11 7 29 7 32 -1 31 -2 -22 -27 -30 -14 -56 -27 -58 -28 -1 -1 0 -10 4 -19 4 -11 13 -15 25 -11 13 4 17 1 17 -12 -1 -10 2 -31 6 -46 4 -18 3 -26 -3 -23 -5 4 -12 2 -16 -3 -3 -6 3 -8 15 -6 11 2 20 0 20 -4 0 -5 -13 -8 -29 -7 -26 1 -27 3 -18 23 15 33 -28 112 -57 105 -30 -7 -48 -23 -42 -37 2 -7 0 -17 -6 -23 -6 -6 -7 -16 -2 -23 4 -7 7 -33 5 -56 -2 -30 4 -54 19 -78 23 -36 33 -46 24 -20 -4 8 -1 15 5 15 6 0 11 -7 11 -17 0 -9 3 -13 7 -9 4 3 12 -8 17 -26 10 -29 15 -33 45 -33 20 0 37 6 41 15 4 8 12 25 18 37 7 14 8 24 2 28 -15 9 -12 25 3 25 21 0 47 34 47 62 0 14 -9 33 -20 43 -19 17 -19 18 1 34 14 11 18 22 13 34 -5 15 -9 16 -15 5 -7 -11 -9 -10 -9 1 0 8 7 22 15 31 9 10 13 24 10 32 -5 13 -10 12 -30 -6 -17 -15 -21 -24 -13 -33 8 -10 6 -13 -6 -13 -9 0 -16 -4 -16 -10 0 -5 -7 -10 -15 -10 -8 0 -15 5 -15 11 0 6 -9 9 -20 6 -11 -3 -20 -1 -20 4 0 5 8 9 18 9 9 0 30 11 46 25 16 14 34 25 40 25 6 0 5 4 -3 9 -23 15 -139 11 -152 -5z m59 -6 c-3 -7 -13 -13 -23 -13 -10 0 -20 6 -22 13 -3 7 5 12 22 12 17 0 25 -5 23 -12z m117 -27 c-3 -6 -14 -11 -23 -11 -13 0 -13 2 4 14 21 15 30 14 19 -3z m-163 -46 c-2 -5 -13 -9 -25 -8 -20 2 -20 2 -3 -5 12 -5 15 -11 9 -15 -14 -9 -37 19 -28 33 8 14 51 9 47 -5z m145 -11 c5 -13 8 -13 15 -2 8 10 9 10 5 -2 -2 -8 -15 -15 -30 -15 -15 -1 -32 -7 -39 -14 -11 -11 -10 -13 2 -9 27 9 70 -30 70 -64 0 -26 -2 -29 -15 -18 -10 9 -31 10 -64 6 -29 -4 -52 -2 -55 3 -4 5 8 11 26 13 35 3 35 3 22 68 -4 19 0 28 18 36 33 16 38 16 45 -2z m-122 -74 c-2 -32 2 -44 18 -55 12 -8 17 -15 11 -15 -5 0 -16 6 -23 13 -11 10 -12 7 -7 -15 7 -30 1 -34 -24 -18 -10 6 -11 10 -2 10 25 0 11 16 -15 17 -16 1 -22 -1 -15 -4 6 -2 12 -14 12 -26 -1 -22 -1 -22 -15 -3 -15 20 -19 74 -9 114 6 20 11 22 38 17 25 -5 28 -4 13 5 -9 6 -14 16 -11 22 13 20 31 -21 29 -62z m125 -64 c0 -9 -12 -13 -40 -12 -39 1 -47 6 -33 19 13 13 73 7 73 -7z m-43 -33 c0 -15 -59 -12 -64 4 -3 8 7 11 30 10 18 -1 34 -7 34 -14z m-10 -25 c28 1 31 -1 24 -16 -5 -9 -12 -25 -15 -34 -8 -28 -63 -24 -71 5 -18 62 -18 59 7 51 12 -4 38 -6 55 -6z"/>
 <path d="M86 431 c-4 -5 -3 -16 0 -25 4 -11 11 -13 31 -5 33 12 33 12 33 -16 0 -14 5 -25 10 -25 6 0 10 11 10 25 0 28 0 28 33 16 20 -8 27 -6 31 6 4 9 2 21 -4 27 -8 8 -11 7 -8 -3 2 -8 -6 -17 -16 -19 -15 -3 -17 0 -12 14 6 17 6 17 -14 -1 -19 -18 -21 -18 -40 0 -20 18 -20 18 -14 1 5 -14 3 -17 -12 -14 -10 2 -18 10 -16 16 2 14 -4 16 -12 3z"/>
 <path d="M486 431 c-4 -5 -3 -16 0 -25 4 -11 11 -13 31 -5 33 12 33 12 33 -16 0 -14 5 -25 10 -25 6 0 10 11 10 25 0 28 0 28 33 16 20 -8 27 -6 31 6 4 9 2 21 -4 27 -8 8 -11 7 -8 -3 2 -8 -6 -17 -16 -19 -15 -3 -17 0 -12 14 6 17 6 17 -14 -1 -19 -18 -21 -18 -40 0 -20 18 -20 18 -14 1 5 -14 3 -17 -12 -14 -10 2 -18 10 -16 16 2 14 -4 16 -12 3z"/>
 <path d="M886 431 c-4 -5 -3 -16 0 -25 4 -11 11 -13 31 -5 33 12 33 12 33 -16 0 -14 5 -25 10 -25 6 0 10 11 10 25 0 28 0 28 33 16 20 -8 27 -6 31 6 4 9 2 21 -4 27 -8 8 -11 7 -8 -3 2 -8 -6 -17 -16 -19 -15 -3 -17 0 -12 14 6 17 6 17 -14 -1 -19 -18 -21 -18 -40 0 -20 18 -20 18 -14 1 5 -14 3 -17 -12 -14 -10 2 -18 10 -16 16 2 14 -4 16 -12 3z"/>
 <path d="M1287 429 c-12 -7 -15 -17 -11 -34 4 -16 0 -30 -10 -40 -8 -9 -13 -21 -10 -28 2 -7 -5 -18 -16 -25 -17 -11 -20 -10 -20 7 0 11 8 24 17 30 10 5 14 13 9 18 -5 4 -11 2 -14 -6 -3 -10 -6 -10 -12 -2 -4 7 -7 -2 -8 -20 0 -18 8 -43 18 -56 10 -14 17 -30 14 -37 -3 -7 2 -19 11 -26 8 -7 15 -18 15 -26 0 -7 6 -17 13 -21 7 -4 20 -26 28 -48 13 -36 18 -40 49 -40 31 0 36 4 49 40 8 22 21 44 28 48 7 4 13 14 13 21 0 8 7 19 15 26 9 7 14 19 11 26 -3 7 4 23 14 37 10 13 18 38 18 56 -1 18 -4 27 -8 20 -6 -8 -9 -8 -12 2 -3 8 -9 10 -14 6 -5 -5 -1 -13 9 -18 9 -6 17 -19 17 -30 0 -17 -3 -18 -20 -7 -11 7 -18 18 -16 25 3 7 -2 19 -10 28 -11 10 -14 24 -10 40 8 33 -29 54 -63 36 -15 -8 -27 -9 -40 -1 -24 12 -31 12 -54 -1z m53 -9 c12 -7 12 -13 4 -27 -17 -28 -50 -28 -57 -1 -4 12 -4 24 -2 27 3 2 5 0 5 -6 0 -7 9 -9 22 -5 21 5 21 6 2 13 -12 5 -14 8 -4 8 8 0 22 -4 30 -9z m66 1 c-19 -7 -19 -8 2 -13 13 -4 22 -2 22 5 0 6 2 8 5 6 2 -3 2 -15 -2 -27 -7 -27 -40 -27 -57 1 -12 19 5 37 34 36 10 0 8 -3 -4 -8z m-36 -51 c7 11 10 6 11 -22 2 -62 11 -83 22 -53 4 8 2 15 -4 15 -6 0 -9 10 -7 23 4 30 51 32 56 2 2 -11 10 -25 19 -32 10 -8 12 -19 7 -35 -7 -22 -8 -21 -16 10 -5 17 -14 32 -20 32 -9 0 -9 -3 0 -12 7 -7 12 -25 12 -41 0 -16 4 -26 10 -22 6 3 10 2 10 -4 0 -17 -22 -24 -32 -10 -7 11 -9 9 -5 -7 6 -27 -7 -49 -22 -40 -15 10 -14 26 2 22 6 -1 9 -1 5 1 -5 3 -8 11 -8 19 0 8 -4 14 -9 14 -5 0 -12 10 -14 23 -4 19 -4 19 -6 -5 0 -15 4 -30 9 -33 6 -4 8 -11 4 -16 -4 -6 -11 -6 -20 2 -11 9 -17 9 -28 0 -9 -8 -16 -8 -20 -2 -4 5 -2 12 4 16 5 3 9 18 9 33 -2 24 -2 24 -6 5 -2 -13 -9 -23 -14 -23 -5 0 -9 -6 -9 -14 0 -8 -3 -16 -7 -19 -5 -2 -2 -2 5 -1 15 4 16 -12 1 -22 -15 -9 -28 13 -22 40 4 16 2 18 -5 7 -10 -14 -32 -7 -32 10 0 6 5 7 10 4 6 -4 10 6 10 22 0 16 5 34 12 41 9 9 9 12 0 12 -6 0 -15 -15 -20 -32 -8 -31 -9 -32 -16 -10 -5 16 -3 27 7 35 9 7 17 21 19 32 5 30 52 28 56 -2 2 -13 -1 -23 -7 -23 -6 0 -8 -7 -4 -15 11 -30 20 -9 22 53 1 28 4 33 11 22 9 -13 11 -13 20 0z m24 -199 c33 -36 -12 -110 -51 -85 -29 18 -38 62 -17 85 9 10 25 19 34 19 9 0 25 -9 34 -19z"/>
 <path d="M1285 330 c-3 -5 3 -10 15 -10 12 0 18 5 15 10 -3 6 -10 10 -15 10 -5 0 -12 -4 -15 -10z"/>
 <path d="M1405 330 c-3 -5 3 -10 15 -10 12 0 18 5 15 10 -3 6 -10 10 -15 10 -5 0 -12 -4 -15 -10z"/>
 <path d="M16 372 c4 -51 29 -112 46 -112 12 0 10 5 -12 30 -11 13 -20 26 -20 30 0 7 52 21 57 16 2 -1 -1 -29 -5 -62 -6 -50 -10 -59 -27 -59 -14 0 -20 6 -19 23 0 16 -2 20 -10 12 -7 -7 -7 -16 1 -28 7 -9 20 -33 30 -52 17 -34 17 -34 24 -10 6 24 7 24 14 5 34 -86 33 -85 65 -85 32 0 31 -1 65 85 7 19 8 19 14 -5 7 -24 7 -24 24 10 10 19 23 43 30 52 8 12 8 21 1 28 -8 8 -10 4 -10 -12 1 -17 -5 -23 -19 -23 -17 0 -21 9 -27 59 -4 33 -7 61 -5 62 5 5 57 -9 57 -16 0 -4 -9 -17 -20 -30 -22 -25 -24 -30 -12 -30 17 0 42 61 46 112 3 32 2 43 -2 28 -10 -32 -34 -32 -42 -1 l-6 24 -16 -25 c-12 -19 -23 -25 -38 -21 -25 7 -25 8 5 -51 25 -50 34 -116 15 -116 -5 0 -10 9 -10 19 0 12 -9 21 -25 25 -38 10 -75 -3 -75 -25 0 -10 -4 -19 -10 -19 -19 0 -10 66 15 116 30 59 30 58 5 51 -15 -4 -26 2 -38 21 l-16 25 -6 -24 c-8 -31 -32 -31 -42 1 -4 15 -5 4 -2 -28z m61 -16 c-5 -14 -49 -15 -54 -1 -1 6 11 10 27 11 19 1 29 -3 27 -10z m35 -8 c-7 -7 -12 -8 -12 -2 0 14 12 26 19 19 2 -3 -1 -11 -7 -17z m108 1 c0 -6 -4 -7 -10 -4 -5 3 -10 11 -10 16 0 6 5 7 10 4 6 -3 10 -11 10 -16z m77 6 c-5 -14 -49 -13 -54 1 -2 7 8 11 27 10 16 -1 28 -5 27 -11z m-105 -130 c11 -15 28 -24 41 -22 14 1 22 -4 24 -18 4 -19 3 -19 -8 -1 -8 14 -13 15 -19 6 -10 -17 -44 -4 -34 12 4 7 4 10 -1 6 -4 -4 -14 -3 -22 3 -9 8 -17 8 -26 0 -8 -6 -18 -7 -22 -3 -5 4 -5 1 -1 -6 10 -16 -24 -29 -34 -12 -6 9 -11 8 -19 -6 -11 -18 -12 -18 -8 1 2 14 10 19 25 18 13 -2 28 7 39 22 23 31 40 31 65 0z m-12 -35 c0 -5 -9 -10 -20 -10 -11 0 -20 5 -20 10 0 6 9 10 20 10 11 0 20 -4 20 -10z m-20 -25 c14 0 28 4 32 10 14 19 19 -25 6 -52 -9 -19 -21 -28 -38 -28 -17 0 -29 9 -38 28 -13 27 -8 71 6 52 4 -6 18 -10 32 -10z"/>
 <path d="M153 135 c0 -8 4 -12 9 -9 5 3 6 10 3 15 -9 13 -12 11 -12 -6z"/>
 <path d="M30 410 c0 -5 5 -10 10 -10 6 0 10 5 10 10 0 6 -4 10 -10 10 -5 0 -10 -4 -10 -10z"/>
 <path d="M270 410 c0 -5 5 -10 10 -10 6 0 10 5 10 10 0 6 -4 10 -10 10 -5 0 -10 -4 -10 -10z"/>
 <path d="M416 372 c4 -51 29 -112 46 -112 12 0 10 5 -12 30 -11 13 -20 26 -20 30 0 7 52 21 57 16 2 -1 -1 -29 -5 -62 -6 -50 -10 -59 -27 -59 -14 0 -20 6 -19 23 0 16 -2 20 -10 12 -7 -7 -7 -16 1 -28 7 -9 20 -33 30 -52 17 -34 17 -34 24 -10 6 24 7 24 14 5 34 -86 33 -85 65 -85 27 0 33 6 49 43 12 28 15 44 8 49 -13 8 -18 38 -7 38 4 0 6 9 3 19 -6 24 -50 35 -84 22 -13 -5 -18 -10 -11 -10 10 -1 10 -4 -2 -16 -8 -8 -17 -15 -20 -15 -15 0 -3 72 19 116 30 59 30 58 5 51 -15 -4 -26 2 -38 21 l-16 25 -6 -24 c-8 -31 -32 -31 -42 1 -4 15 -5 4 -2 -28z m61 -16 c-5 -14 -49 -15 -54 -1 -1 6 11 10 27 11 19 1 29 -3 27 -10z m35 -8 c-7 -7 -12 -8 -12 -2 0 6 3 14 7 17 3 4 9 5 12 2 2 -3 -1 -11 -7 -17z m73 -115 c16 -36 14 -45 -6 -27 -14 13 -22 14 -32 5 -8 -6 -18 -7 -22 -3 -5 4 -5 1 -1 -6 4 -7 1 -15 -9 -18 -28 -11 -27 3 2 34 32 34 58 40 68 15z m-114 -50 c-8 -15 -10 -15 -11 -2 0 17 10 32 18 25 2 -3 -1 -13 -7 -23z m109 7 c0 -5 -9 -10 -20 -10 -11 0 -20 5 -20 10 0 6 9 10 20 10 11 0 20 -4 20 -10z m-20 -25 c14 0 28 4 32 10 14 19 19 -25 6 -52 -9 -19 -21 -28 -38 -28 -17 0 -29 9 -38 28 -13 27 -8 71 6 52 4 -6 18 -10 32 -10z"/>
 <path d="M553 135 c0 -8 4 -12 9 -9 5 3 6 10 3 15 -9 13 -12 11 -12 -6z"/>
 <path d="M430 410 c0 -5 5 -10 10 -10 6 0 10 5 10 10 0 6 -4 10 -10 10 -5 0 -10 -4 -10 -10z"/>
 <path d="M638 398 c-12 -19 -23 -25 -38 -21 -25 7 -25 8 5 -52 18 -34 25 -64 24 -95 -1 -25 3 -56 8 -69 9 -24 9 -24 26 10 10 19 23 42 30 51 8 12 8 21 1 28 -8 8 -10 4 -10 -12 1 -17 -5 -23 -19 -23 -17 0 -21 9 -27 59 -4 33 -7 61 -5 62 5 5 57 -9 57 -16 0 -4 -9 -17 -20 -30 -22 -25 -24 -30 -12 -30 17 0 42 61 46 112 3 32 2 43 -2 28 -10 -32 -34 -32 -42 -1 l-6 24 -16 -25z m-18 -49 c0 -6 -4 -7 -10 -4 -5 3 -10 11 -10 16 0 6 5 7 10 4 6 -3 10 -11 10 -16z m77 6 c-5 -14 -49 -13 -54 1 -2 7 8 11 27 10 16 -1 28 -5 27 -11z m-37 -171 c0 -12 -2 -12 -14 -2 -8 7 -12 16 -9 21 7 11 23 -2 23 -19z"/>
 <path d="M670 410 c0 -5 5 -10 10 -10 6 0 10 5 10 10 0 6 -4 10 -10 10 -5 0 -10 -4 -10 -10z"/>
 <path d="M816 372 c4 -51 29 -112 46 -112 12 0 10 5 -12 30 -11 13 -20 26 -20 30 0 7 52 21 57 16 2 -1 -1 -29 -5 -62 -6 -50 -10 -59 -27 -59 -14 0 -20 6 -19 23 0 16 -2 20 -10 12 -7 -7 -7 -16 1 -28 7 -9 20 -32 30 -51 17 -34 17 -34 26 -10 5 13 9 44 8 69 -1 31 6 61 24 95 30 60 30 59 5 52 -15 -4 -26 2 -38 21 l-16 25 -6 -24 c-8 -31 -32 -31 -42 1 -4 15 -5 4 -2 -28z m61 -16 c-5 -14 -49 -15 -54 -1 -1 6 11 10 27 11 19 1 29 -3 27 -10z m35 -8 c-7 -7 -12 -8 -12 -2 0 14 12 26 19 19 2 -3 -1 -11 -7 -17z m-35 -163 c-15 -16 -22 -11 -13 10 3 9 10 13 16 10 6 -4 5 -11 -3 -20z"/>
 <path d="M830 410 c0 -5 5 -10 10 -10 6 0 10 5 10 10 0 6 -4 10 -10 10 -5 0 -10 -4 -10 -10z"/>
 <path d="M1038 398 c-12 -19 -23 -25 -38 -21 -25 7 -25 8 5 -51 22 -44 34 -116 19 -116 -3 0 -12 7 -20 15 -12 12 -12 15 -2 16 7 0 2 5 -11 10 -34 13 -78 2 -84 -22 -3 -10 -1 -19 3 -19 11 0 6 -30 -7 -38 -7 -5 -4 -21 8 -49 16 -37 22 -43 49 -43 32 0 31 -1 65 85 7 19 8 19 14 -5 7 -24 7 -24 24 10 10 19 23 43 30 52 8 12 8 21 1 28 -8 8 -10 4 -10 -12 1 -17 -5 -23 -19 -23 -17 0 -21 9 -27 59 -4 33 -7 61 -5 62 5 5 57 -9 57 -16 0 -4 -9 -17 -20 -30 -22 -25 -24 -30 -12 -30 17 0 42 61 46 112 3 32 2 43 -2 28 -10 -32 -34 -32 -42 -1 l-6 24 -16 -25z m-18 -49 c0 -6 -4 -7 -10 -4 -5 3 -10 11 -10 16 0 6 5 7 10 4 6 -3 10 -11 10 -16z m77 6 c-5 -14 -49 -13 -54 1 -2 7 8 11 27 10 16 -1 28 -5 27 -11z m-97 -136 c32 -32 34 -46 5 -35 -10 3 -13 11 -9 18 4 7 4 10 -1 6 -4 -4 -14 -3 -22 3 -10 9 -18 8 -32 -5 -20 -18 -22 -9 -6 27 11 25 29 21 65 -14z m60 -37 c0 -15 -2 -15 -10 -2 -13 20 -13 33 0 25 6 -3 10 -14 10 -23z m-80 8 c0 -5 -9 -10 -20 -10 -11 0 -20 5 -20 10 0 6 9 10 20 10 11 0 20 -4 20 -10z m-20 -25 c14 0 28 4 32 10 14 19 19 -25 6 -52 -9 -19 -21 -28 -38 -28 -17 0 -29 9 -38 28 -13 27 -8 71 6 52 4 -6 18 -10 32 -10z"/>
 <path d="M953 135 c0 -8 4 -12 9 -9 5 3 6 10 3 15 -9 13 -12 11 -12 -6z"/>
 <path d="M1070 410 c0 -5 5 -10 10 -10 6 0 10 5 10 10 0 6 -4 10 -10 10 -5 0 -10 -4 -10 -10z"/>
 <path d="M140 332 c0 -4 9 -8 20 -8 11 0 20 4 20 8 0 4 -9 8 -20 8 -11 0 -20 -4 -20 -8z"/>
 <path d="M540 332 c0 -4 9 -8 20 -8 11 0 20 4 20 8 0 4 -9 8 -20 8 -11 0 -20 -4 -20 -8z"/>
 <path d="M940 332 c0 -4 9 -8 20 -8 11 0 20 4 20 8 0 4 -9 8 -20 8 -11 0 -20 -4 -20 -8z"/>
 <path d="M122 319 c6 -19 70 -18 76 1 4 11 2 13 -9 5 -17 -12 -39 -13 -58 -1 -9 6 -12 5 -9 -5z"/>
 <path d="M522 319 c6 -19 70 -18 76 1 4 11 2 13 -9 5 -17 -12 -39 -13 -58 -1 -9 6 -12 5 -9 -5z"/>
 <path d="M922 319 c6 -19 70 -18 76 1 4 11 2 13 -9 5 -17 -12 -39 -13 -58 -1 -9 6 -12 5 -9 -5z"/>
 </g>
<g id="layer2" fill="#6d6d6d" stroke="none">
 <path d="M0 640 l0 -640 1190 0 1190 0 0 640 0 640 -1190 0 -1190 0 0 -640z m497 593 c-10 -9 13 -33 30 -33 11 0 14 7 10 23 -6 21 -5 20 17 -5 13 -15 26 -24 30 -21 3 3 0 -9 -7 -26 -16 -43 -27 -39 -20 7 5 32 4 35 -8 25 -17 -14 -59 -13 -59 1 0 5 -2 7 -5 4 -3 -3 -3 -12 1 -21 4 -12 13 -15 29 -11 13 3 26 1 29 -5 5 -7 1 -8 -9 -4 -10 3 -21 0 -26 -8 -12 -19 -11 -29 1 -29 6 0 10 7 10 15 0 8 5 15 10 15 15 0 12 -7 -11 -39 -20 -28 -39 -121 -25 -121 4 0 14 7 22 15 12 12 12 15 2 16 -7 0 -2 5 11 10 34 13 78 2 84 -22 3 -10 1 -19 -3 -19 -11 0 -6 -30 7 -38 7 -5 4 -21 -8 -49 -16 -37 -22 -43 -49 -43 -32 0 -31 -1 -65 85 -7 19 -8 19 -14 -5 -7 -24 -7 -24 -24 10 -10 19 -23 43 -30 52 -8 12 -8 21 -1 28 8 8 10 4 10 -12 -1 -17 5 -23 19 -23 24 0 34 52 13 67 -10 7 -9 8 5 4 12 -4 17 0 17 13 0 14 -6 17 -25 13 -29 -5 -31 -14 -9 -36 8 -9 11 -16 5 -16 -17 0 -31 36 -36 92 -2 32 -1 43 3 28 12 -38 36 -31 40 10 3 32 17 60 30 60 3 0 2 -3 -1 -7z m486 -13 c-4 -13 0 -20 10 -20 19 0 39 24 29 36 -4 4 1 3 10 -5 9 -7 18 -29 20 -49 4 -43 28 -51 40 -12 4 15 5 4 3 -28 -5 -56 -19 -92 -36 -92 -6 0 -3 7 5 16 22 22 20 31 -9 36 -19 4 -25 1 -25 -13 0 -13 5 -17 18 -13 13 4 14 3 4 -4 -21 -15 -11 -67 13 -67 14 0 20 6 19 23 0 16 2 20 10 12 7 -7 7 -16 -1 -28 -7 -9 -20 -33 -30 -52 -17 -34 -17 -34 -24 -10 -6 24 -7 24 -14 5 -34 -86 -33 -85 -65 -85 -27 0 -33 6 -49 43 -12 28 -15 44 -8 49 13 8 18 38 7 38 -4 0 -6 9 -3 19 6 24 50 35 84 22 13 -5 18 -10 11 -10 -10 -1 -10 -4 2 -16 8 -8 18 -15 22 -15 14 0 -5 93 -25 121 -23 32 -26 39 -11 39 6 0 10 -7 10 -15 0 -8 5 -15 10 -15 12 0 13 10 1 29 -5 8 -16 11 -26 8 -10 -4 -14 -3 -9 4 3 6 16 8 29 5 16 -4 25 -1 29 11 4 9 4 18 1 21 -3 3 -5 1 -5 -4 0 -14 -42 -15 -59 -1 -12 10 -13 7 -8 -25 7 -46 -4 -50 -20 -7 -7 17 -10 29 -6 26 3 -4 14 5 25 18 24 30 28 31 21 5z m452 8 c4 -3 2 -15 -4 -26 -9 -16 -7 -24 5 -37 14 -13 19 -14 26 -3 8 11 10 11 15 -1 4 -10 7 -10 13 -2 13 21 9 -49 -4 -82 -8 -18 -12 -37 -9 -43 2 -6 -3 -17 -12 -24 -8 -7 -15 -18 -15 -26 0 -7 -6 -17 -13 -21 -7 -4 -20 -26 -28 -48 -12 -34 -20 -40 -47 -43 -29 -3 -34 1 -52 40 -25 52 -41 80 -59 102 -11 13 -11 19 -1 31 6 8 10 20 7 27 -3 8 -6 5 -6 -6 -1 -15 -4 -16 -16 -6 -21 17 -19 48 5 62 11 7 20 20 20 28 0 20 56 54 76 46 9 -3 14 1 14 13 0 10 2 20 5 23 7 7 73 4 80 -4z m390 4 c25 -5 40 -13 40 -22 0 -8 9 -23 20 -32 16 -13 17 -19 8 -29 -10 -10 -9 -15 4 -24 10 -8 13 -17 8 -26 -5 -7 -8 -33 -6 -56 2 -30 -4 -54 -19 -78 -23 -36 -33 -46 -24 -20 4 8 1 15 -5 15 -6 0 -11 -7 -11 -17 0 -9 -3 -13 -7 -9 -4 3 -12 -8 -17 -26 -10 -29 -15 -33 -45 -33 -20 0 -37 6 -41 15 -4 8 -12 25 -18 37 -7 14 -8 24 -2 28 14 9 13 25 -2 25 -21 0 -48 33 -48 58 0 14 10 36 22 49 19 20 20 25 8 34 -8 5 -27 7 -41 4 -16 -4 -30 0 -38 9 -18 22 0 48 35 52 24 2 26 1 11 -7 -9 -6 -22 -7 -27 -4 -6 3 -10 2 -10 -4 0 -18 21 -23 38 -9 15 11 16 11 4 -3 -11 -14 -9 -18 12 -23 13 -3 36 1 52 9 24 12 25 15 9 15 -11 0 -29 7 -39 15 -19 14 -19 15 -2 15 15 0 16 3 6 15 -10 12 -10 16 1 19 8 2 21 7 29 9 21 7 49 7 95 -1z m386 -8 c6 -3 5 -11 -2 -20 -9 -11 -8 -14 7 -14 17 0 17 -1 -2 -15 -10 -8 -28 -15 -39 -15 -16 0 -15 -3 9 -15 16 -8 39 -12 52 -9 21 5 23 9 12 23 -12 14 -11 14 4 3 17 -14 38 -9 38 9 0 6 -4 7 -10 4 -5 -3 -18 -2 -27 4 -15 8 -13 9 11 7 35 -4 53 -30 35 -52 -8 -9 -22 -13 -38 -9 -14 3 -33 1 -41 -4 -12 -9 -11 -14 8 -34 12 -13 22 -34 22 -47 0 -26 -26 -60 -47 -60 -15 0 -18 -16 -3 -25 6 -4 5 -14 -2 -28 -6 -12 -14 -29 -18 -37 -4 -9 -21 -15 -41 -15 -30 0 -35 4 -45 33 -5 18 -13 29 -17 26 -4 -4 -7 0 -7 9 0 10 -5 17 -11 17 -6 0 -9 -7 -5 -15 9 -26 -1 -16 -24 20 -15 24 -21 48 -19 78 2 23 -1 49 -6 56 -5 9 -2 18 8 26 13 9 14 14 4 24 -9 10 -8 16 8 29 11 9 20 24 20 32 0 25 131 36 166 14z m-1551 -39 c8 0 17 11 21 25 9 31 3 -83 -6 -127 -4 -18 -11 -33 -15 -33 -8 0 -1 33 15 71 4 12 -1 18 -21 22 -25 4 -26 4 -19 -32 3 -20 7 -52 8 -71 2 -28 6 -35 22 -35 14 0 20 6 19 23 0 16 2 20 10 12 7 -7 7 -16 -1 -28 -7 -9 -20 -32 -30 -51 -16 -34 -17 -34 -25 -10 -5 13 -10 49 -11 79 -1 36 -9 66 -22 85 -26 40 -27 53 -4 66 11 5 16 15 13 21 -4 7 -3 8 4 4 7 -4 12 0 13 11 1 12 3 10 8 -7 4 -14 13 -25 21 -25z m10 35 c0 -5 -4 -10 -10 -10 -5 0 -10 5 -10 10 0 6 5 10 10 10 6 0 10 -4 10 -10z m190 -35 c8 0 17 11 21 25 5 17 7 19 8 7 1 -11 6 -15 13 -11 7 4 8 3 4 -4 -3 -6 2 -16 13 -21 23 -13 22 -26 -4 -66 -13 -19 -21 -49 -22 -85 -1 -30 -6 -66 -11 -79 -8 -24 -9 -24 -25 10 -10 19 -23 42 -30 51 -8 12 -8 21 -1 28 8 8 10 4 10 -12 -1 -17 5 -23 19 -23 16 0 20 7 22 35 1 19 5 51 8 71 7 36 6 36 -19 32 -20 -4 -25 -10 -21 -22 16 -38 23 -71 15 -71 -4 0 -11 15 -15 33 -9 44 -15 158 -6 127 4 -14 13 -25 21 -25z m10 35 c0 -5 -4 -10 -10 -10 -5 0 -10 5 -10 10 0 6 5 10 10 10 6 0 10 -4 10 -10z m-410 -40 c0 -5 -4 -10 -10 -10 -5 0 -10 5 -10 10 0 6 5 10 10 10 6 0 10 -4 10 -10z m620 0 c0 -5 -4 -10 -10 -10 -5 0 -10 5 -10 10 0 6 5 10 10 10 6 0 10 -4 10 -10z m-500 -71 c0 -5 6 -7 13 -3 7 4 8 3 4 -2 -12 -12 -66 -13 -74 -1 -3 6 -1 7 5 3 7 -4 12 -2 12 3 0 6 9 11 20 11 11 0 20 -5 20 -11z m400 0 c0 -5 6 -7 13 -3 7 4 8 3 4 -2 -12 -12 -66 -13 -74 -1 -3 6 -1 7 5 3 7 -4 12 -2 12 3 0 6 9 11 20 11 11 0 20 -5 20 -11z m-483 -276 c-10 -9 13 -33 30 -33 11 0 14 7 10 23 -6 21 -5 20 17 -5 13 -15 26 -24 30 -21 3 3 0 -9 -7 -26 -16 -43 -27 -39 -20 7 5 32 4 35 -8 25 -17 -14 -59 -13 -59 1 0 5 -2 7 -5 4 -3 -3 -3 -12 1 -21 4 -12 13 -15 29 -11 13 3 26 1 29 -5 5 -7 1 -8 -9 -4 -10 3 -21 0 -26 -8 -12 -19 -11 -29 1 -29 6 0 10 7 10 15 0 8 5 15 10 15 15 0 12 -7 -11 -39 -24 -32 -39 -121 -20 -121 6 0 11 9 11 19 0 22 37 35 75 25 16 -4 25 -13 25 -25 0 -10 5 -19 11 -19 17 0 5 84 -17 117 -25 38 -26 51 -3 64 11 5 16 15 13 21 -4 7 -3 8 4 4 7 -4 12 0 13 11 1 12 3 10 8 -7 4 -14 13 -25 21 -25 8 0 17 11 21 25 9 31 3 -83 -6 -127 -4 -18 -11 -33 -15 -33 -8 0 -1 33 15 71 4 12 -1 18 -21 22 -25 4 -26 4 -19 -32 3 -20 7 -52 8 -71 2 -28 6 -35 22 -35 14 0 20 6 19 23 0 16 2 20 10 12 7 -7 7 -16 -1 -28 -7 -9 -20 -33 -30 -52 -17 -34 -17 -34 -24 -10 -6 24 -7 24 -14 5 -34 -86 -33 -85 -65 -85 -32 0 -31 -1 -65 85 -7 19 -8 19 -14 -5 -7 -24 -7 -24 -24 10 -10 19 -23 43 -30 52 -8 12 -8 21 -1 28 8 8 10 4 10 -12 -1 -17 5 -23 19 -23 24 0 34 52 13 67 -10 7 -9 8 5 4 12 -4 17 0 17 13 0 14 -6 17 -25 13 -29 -5 -31 -14 -9 -36 8 -9 11 -16 5 -16 -17 0 -31 36 -36 92 -2 32 -1 43 3 28 12 -38 36 -31 40 10 3 32 17 60 30 60 3 0 2 -3 -1 -7z m486 -13 c-4 -13 0 -20 10 -20 19 0 39 24 29 36 -4 4 1 3 10 -5 9 -7 18 -29 20 -49 4 -43 28 -51 40 -12 4 15 5 4 3 -28 -5 -56 -19 -92 -36 -92 -6 0 -3 7 5 16 22 22 20 31 -9 36 -19 4 -25 1 -25 -13 0 -13 5 -17 18 -13 13 4 14 3 4 -4 -21 -15 -11 -67 13 -67 14 0 20 6 19 23 0 16 2 20 10 12 7 -7 7 -16 -1 -28 -7 -9 -20 -33 -30 -52 -17 -34 -17 -34 -24 -10 -6 24 -7 24 -14 5 -34 -86 -33 -85 -65 -85 -32 0 -31 -1 -65 85 -7 19 -8 19 -14 -5 -7 -24 -7 -24 -24 10 -10 19 -23 43 -30 52 -8 12 -8 21 -1 28 8 8 10 4 10 -12 -1 -17 5 -23 19 -23 16 0 20 7 22 35 1 19 5 51 8 71 7 36 6 36 -19 32 -20 -4 -25 -10 -21 -22 16 -38 23 -71 15 -71 -4 0 -11 15 -15 33 -9 44 -15 158 -6 127 4 -14 13 -25 21 -25 8 0 17 11 21 25 5 17 7 19 8 7 1 -11 6 -15 13 -11 7 4 8 3 4 -4 -3 -6 2 -16 13 -21 23 -13 22 -26 -3 -64 -22 -33 -34 -117 -17 -117 6 0 11 9 11 19 0 12 9 21 25 25 38 10 75 -3 75 -25 0 -10 5 -19 11 -19 19 0 4 89 -20 121 -23 32 -26 39 -11 39 6 0 10 -7 10 -15 0 -8 5 -15 10 -15 12 0 13 10 1 29 -5 8 -16 11 -26 8 -10 -4 -14 -3 -9 4 3 6 16 8 29 5 16 -4 25 -1 29 11 4 9 4 18 1 21 -3 3 -5 1 -5 -4 0 -14 -42 -15 -59 -1 -12 10 -13 7 -8 -25 7 -46 -4 -50 -20 -7 -7 17 -10 29 -6 26 3 -4 14 5 25 18 24 30 28 31 21 5z m385 -7 c2 -14 8 -20 17 -17 19 8 75 -27 75 -46 0 -8 9 -21 20 -28 24 -14 26 -45 5 -62 -12 -10 -15 -9 -16 6 0 11 -3 14 -6 6 -3 -7 1 -19 7 -27 10 -12 10 -18 -1 -31 -18 -22 -34 -50 -59 -102 -18 -39 -23 -43 -52 -40 -27 3 -35 9 -47 43 -8 22 -21 44 -28 48 -7 4 -13 14 -13 21 0 8 -7 19 -15 26 -9 7 -14 18 -12 24 3 6 -1 25 -9 43 -7 18 -12 47 -12 65 1 18 3 27 6 19 4 -11 6 -11 13 0 7 12 10 12 18 1 14 -23 44 14 31 39 -15 28 -6 36 37 35 31 -2 39 -6 41 -23z m428 18 c5 -5 20 -11 34 -13 15 -2 26 -11 29 -23 2 -11 10 -24 18 -28 18 -11 35 -55 26 -70 -4 -6 -6 -31 -4 -54 2 -30 -4 -54 -19 -78 -23 -36 -33 -46 -24 -20 4 8 1 15 -5 15 -6 0 -11 -7 -11 -17 0 -9 -3 -13 -7 -9 -4 3 -12 -8 -17 -26 -10 -29 -15 -33 -45 -33 -20 0 -37 6 -41 15 -4 8 -12 25 -18 37 -7 14 -8 24 -2 28 14 9 13 25 -2 25 -21 0 -48 33 -48 60 0 15 9 35 20 45 30 27 25 38 -14 31 -23 -4 -37 -2 -45 8 -18 22 0 48 35 52 24 2 26 1 11 -7 -9 -6 -22 -7 -27 -4 -6 3 -10 2 -10 -4 0 -16 20 -23 34 -12 7 6 16 8 19 4 4 -3 7 1 7 11 0 9 5 14 10 11 6 -3 10 1 10 9 0 8 -9 20 -20 26 -11 6 -18 15 -15 21 8 12 108 12 121 0z m439 0 c3 -6 -4 -15 -15 -21 -11 -6 -20 -18 -20 -26 0 -8 5 -12 10 -9 6 3 10 -2 10 -11 0 -10 3 -14 7 -11 3 4 12 2 19 -4 14 -11 34 -4 34 12 0 6 -4 7 -10 4 -5 -3 -18 -2 -27 4 -15 8 -13 9 11 7 35 -4 53 -30 35 -52 -8 -10 -22 -12 -45 -8 -39 7 -44 -4 -14 -31 11 -10 20 -29 20 -43 0 -28 -26 -62 -47 -62 -15 0 -18 -16 -3 -25 6 -4 5 -14 -2 -28 -6 -12 -14 -29 -18 -37 -4 -9 -21 -15 -41 -15 -30 0 -35 4 -45 33 -5 18 -13 29 -17 26 -4 -4 -7 0 -7 9 0 10 -5 17 -11 17 -6 0 -9 -7 -5 -15 9 -26 -1 -16 -24 20 -15 24 -21 48 -19 78 2 23 0 48 -4 54 -9 15 8 59 26 70 8 4 16 17 18 28 3 12 14 21 29 23 14 2 29 8 35 13 12 12 112 12 120 0z m-1565 -11 c0 -5 -4 -10 -10 -10 -5 0 -10 5 -10 10 0 6 5 10 10 10 6 0 10 -4 10 -10z m200 0 c0 -5 -4 -10 -10 -10 -5 0 -10 5 -10 10 0 6 5 10 10 10 6 0 10 -4 10 -10z m-410 -40 c0 -5 -4 -10 -10 -10 -5 0 -10 5 -10 10 0 6 5 10 10 10 6 0 10 -4 10 -10z m620 0 c0 -5 -4 -10 -10 -10 -5 0 -10 5 -10 10 0 6 5 10 10 10 6 0 10 -4 10 -10z m-500 -71 c0 -5 6 -7 13 -3 7 4 8 3 4 -2 -12 -12 -66 -13 -74 -1 -3 6 -1 7 5 3 7 -4 12 -2 12 3 0 6 9 11 20 11 11 0 20 -5 20 -11z m400 0 c0 -5 6 -7 13 -3 7 4 8 3 4 -2 -12 -12 -66 -13 -74 -1 -3 6 -1 7 5 3 7 -4 12 -2 12 3 0 6 9 11 20 11 11 0 20 -5 20 -11z m841 -275 c6 -8 8 -22 5 -31 -6 -15 -8 -15 -16 -3 -6 10 -10 11 -10 3 0 -9 -10 -8 -34 5 -19 9 -32 20 -29 25 2 4 -11 7 -29 7 -32 -1 -31 -2 22 -27 30 -14 56 -27 58 -28 1 -1 0 -10 -4 -19 -4 -11 -13 -15 -25 -11 -13 4 -17 1 -17 -12 1 -10 -2 -31 -6 -46 -4 -18 -3 -26 3 -23 5 4 12 2 16 -3 3 -6 -3 -8 -15 -6 -11 2 -20 0 -20 -4 0 -5 13 -8 29 -7 26 1 27 3 18 23 -15 33 28 112 57 105 30 -7 48 -23 42 -37 -2 -7 0 -17 6 -23 6 -6 7 -16 2 -23 -4 -7 -7 -33 -5 -56 2 -30 -4 -54 -19 -78 -23 -36 -33 -46 -24 -20 4 8 1 15 -5 15 -6 0 -11 -7 -11 -17 0 -9 -3 -13 -7 -9 -4 3 -12 -8 -17 -26 -10 -29 -15 -33 -45 -33 -20 0 -37 6 -41 15 -4 8 -12 25 -18 37 -7 14 -8 24 -2 28 14 9 13 25 -2 25 -43 0 -63 73 -28 105 19 17 19 18 -1 34 -14 11 -18 22 -13 34 5 15 9 16 15 5 7 -11 9 -10 9 1 0 8 -7 22 -15 31 -9 10 -13 24 -10 32 5 13 10 12 30 -6 17 -15 21 -24 13 -33 -8 -10 -6 -13 6 -13 9 0 16 -4 16 -10 0 -5 7 -10 15 -10 8 0 15 5 15 11 0 6 9 9 20 6 11 -3 20 -1 20 4 0 5 -8 9 -17 9 -10 0 -31 11 -47 25 -16 14 -34 25 -40 25 -6 0 -5 4 3 9 23 15 139 11 152 -5z m420 5 c8 -5 9 -9 3 -9 -6 0 -24 -11 -40 -25 -16 -14 -37 -25 -46 -25 -10 0 -18 -4 -18 -9 0 -5 9 -7 20 -4 11 3 20 0 20 -6 0 -6 7 -11 15 -11 8 0 15 5 15 10 0 6 7 10 16 10 12 0 14 3 6 13 -8 9 -4 18 13 33 20 18 25 19 30 6 3 -8 -1 -22 -10 -32 -8 -9 -15 -23 -15 -31 0 -11 2 -12 9 -1 6 11 10 10 15 -5 5 -12 1 -23 -13 -34 -20 -16 -20 -17 -1 -34 11 -10 20 -29 20 -43 0 -28 -26 -62 -47 -62 -15 0 -18 -16 -3 -25 6 -4 5 -14 -2 -28 -6 -12 -14 -29 -18 -37 -4 -9 -21 -15 -41 -15 -30 0 -35 4 -45 33 -5 18 -13 29 -17 26 -4 -4 -7 0 -7 9 0 10 -5 17 -11 17 -6 0 -9 -7 -5 -15 9 -26 -1 -16 -24 20 -15 24 -21 48 -19 78 2 23 -1 49 -5 56 -5 7 -4 17 2 23 6 6 8 16 6 23 -6 14 12 30 42 37 29 7 72 -72 57 -105 -9 -20 -8 -22 18 -23 16 -1 29 2 29 7 0 4 -9 6 -20 4 -12 -2 -18 0 -15 6 4 5 11 7 16 3 6 -3 7 5 3 23 -4 15 -7 36 -6 46 0 13 -4 16 -17 12 -12 -4 -21 0 -25 11 -4 9 -5 18 -4 19 2 1 28 14 58 28 53 25 54 26 22 27 -18 0 -31 -3 -29 -7 3 -5 -10 -16 -29 -25 -24 -13 -34 -14 -34 -5 0 8 -4 7 -10 -3 -8 -12 -10 -12 -16 3 -12 31 13 45 79 45 35 0 70 -4 78 -9z m-2143 -11 c-2 -6 6 -14 16 -16 15 -3 17 0 12 14 -6 17 -6 17 14 -1 19 -18 21 -18 40 0 20 18 20 18 14 1 -5 -14 -3 -17 12 -14 10 2 18 11 16 19 -3 10 0 11 8 3 6 -6 8 -18 4 -27 -4 -12 -11 -14 -31 -6 -33 12 -33 12 -33 -16 0 -14 -4 -25 -10 -25 -5 0 -10 11 -10 25 0 28 0 28 -33 16 -20 -8 -27 -6 -31 5 -3 9 -4 20 0 25 8 13 14 11 12 -3z m400 0 c-2 -6 6 -14 16 -16 15 -3 17 0 12 14 -6 17 -6 17 14 -1 19 -18 21 -18 40 0 20 18 20 18 14 1 -5 -14 -3 -17 12 -14 10 2 18 11 16 19 -3 10 0 11 8 3 6 -6 8 -18 4 -27 -4 -12 -11 -14 -31 -6 -33 12 -33 12 -33 -16 0 -14 -4 -25 -10 -25 -5 0 -10 11 -10 25 0 28 0 28 -33 16 -20 -8 -27 -6 -31 5 -3 9 -4 20 0 25 8 13 14 11 12 -3z m400 0 c-2 -6 6 -14 16 -16 15 -3 17 0 12 14 -6 17 -6 17 14 -1 19 -18 21 -18 40 0 20 18 20 18 14 1 -5 -14 -3 -17 12 -14 10 2 18 11 16 19 -3 10 0 11 8 3 6 -6 8 -18 4 -27 -4 -12 -11 -14 -31 -6 -33 12 -33 12 -33 -16 0 -14 -4 -25 -10 -25 -5 0 -10 11 -10 25 0 28 0 28 -33 16 -20 -8 -27 -6 -31 5 -3 9 -4 20 0 25 8 13 14 11 12 -3z m443 2 c13 -8 25 -7 40 1 34 18 71 -3 63 -36 -4 -16 -1 -30 10 -40 8 -9 13 -21 10 -28 -2 -7 5 -18 16 -25 17 -11 20 -10 20 7 0 11 -8 24 -17 30 -10 5 -14 13 -9 18 5 4 11 2 14 -6 3 -10 6 -10 12 -2 4 7 7 -2 8 -20 0 -18 -8 -43 -18 -56 -10 -14 -17 -30 -14 -37 3 -7 -2 -19 -11 -26 -8 -7 -15 -18 -15 -26 0 -7 -6 -17 -13 -21 -7 -4 -20 -26 -28 -48 -13 -36 -18 -40 -49 -40 -31 0 -36 4 -49 40 -8 22 -21 44 -28 48 -7 4 -13 14 -13 21 0 8 -7 19 -15 26 -9 7 -14 19 -11 26 3 7 -4 23 -14 37 -10 13 -18 38 -18 56 1 18 4 27 8 20 6 -8 9 -8 12 2 3 8 9 10 14 6 5 -5 1 -13 -9 -18 -9 -6 -17 -19 -17 -30 0 -17 3 -18 20 -7 11 7 18 18 16 25 -3 7 2 19 10 28 10 10 14 24 10 40 -9 36 27 55 65 35z m-1301 -55 c8 0 17 11 20 24 l6 24 16 -25 c12 -19 23 -25 38 -21 25 7 25 8 -5 -51 -25 -50 -34 -116 -15 -116 6 0 10 9 10 19 0 22 37 35 75 25 16 -4 25 -13 25 -25 0 -10 5 -19 10 -19 19 0 10 66 -15 116 -30 59 -30 58 -5 51 15 -4 26 2 38 21 l16 25 6 -24 c8 -31 32 -31 42 1 4 15 5 4 2 -28 -4 -51 -29 -112 -46 -112 -12 0 -10 5 12 30 11 13 20 26 20 30 0 7 -52 21 -57 16 -2 -1 1 -29 5 -62 6 -50 10 -59 27 -59 14 0 20 6 19 23 0 16 2 20 10 12 7 -7 7 -16 -1 -28 -7 -9 -20 -33 -30 -52 -17 -34 -17 -34 -24 -10 -6 24 -7 24 -14 5 -34 -86 -33 -85 -65 -85 -32 0 -31 -1 -65 85 -7 19 -8 19 -14 -5 -7 -24 -7 -24 -24 10 -10 19 -23 43 -30 52 -8 12 -8 21 -1 28 8 8 10 4 10 -12 -1 -17 5 -23 19 -23 17 0 21 9 27 59 4 33 7 61 5 62 -5 5 -57 -9 -57 -16 0 -4 9 -17 20 -30 22 -25 24 -30 12 -30 -17 0 -42 61 -46 112 -3 32 -2 43 2 28 5 -14 14 -25 22 -25z m10 35 c0 -5 -4 -10 -10 -10 -5 0 -10 5 -10 10 0 6 5 10 10 10 6 0 10 -4 10 -10z m240 0 c0 -5 -4 -10 -10 -10 -5 0 -10 5 -10 10 0 6 5 10 10 10 6 0 10 -4 10 -10z m150 -35 c8 0 17 11 20 24 l6 24 16 -25 c12 -19 23 -25 38 -21 25 7 25 8 -5 -51 -22 -44 -34 -116 -19 -116 3 0 12 7 20 15 12 12 12 15 2 16 -7 0 -2 5 11 10 34 13 78 2 84 -22 3 -10 1 -19 -3 -19 -11 0 -6 -30 7 -38 7 -5 4 -21 -8 -49 -16 -37 -22 -43 -49 -43 -32 0 -31 -1 -65 85 -7 19 -8 19 -14 -5 -7 -24 -7 -24 -24 10 -10 19 -23 43 -30 52 -8 12 -8 21 -1 28 8 8 10 4 10 -12 -1 -17 5 -23 19 -23 17 0 21 9 27 59 4 33 7 61 5 62 -5 5 -57 -9 -57 -16 0 -4 9 -17 20 -30 22 -25 24 -30 12 -30 -17 0 -42 61 -46 112 -3 32 -2 43 2 28 5 -14 14 -25 22 -25z m10 35 c0 -5 -4 -10 -10 -10 -5 0 -10 5 -10 10 0 6 5 10 10 10 6 0 10 -4 10 -10z m230 -35 c8 0 17 11 22 25 4 15 5 4 2 -28 -4 -51 -29 -112 -46 -112 -12 0 -10 5 12 30 11 13 20 26 20 30 0 7 -52 21 -57 16 -2 -1 1 -29 5 -62 6 -50 10 -59 27 -59 14 0 20 6 19 23 0 16 2 20 10 12 7 -7 7 -16 -1 -28 -7 -9 -20 -32 -30 -51 -17 -34 -17 -34 -26 -10 -5 13 -9 44 -8 69 1 31 -6 61 -24 95 -30 60 -30 59 -5 52 15 -4 26 2 38 21 l16 25 6 -24 c3 -13 12 -24 20 -24z m10 35 c0 -5 -4 -10 -10 -10 -5 0 -10 5 -10 10 0 6 5 10 10 10 6 0 10 -4 10 -10z m150 -35 c8 0 17 11 20 24 l6 24 16 -25 c12 -19 23 -25 38 -21 25 7 25 8 -5 -52 -18 -34 -25 -64 -24 -95 1 -25 -3 -56 -8 -69 -9 -24 -9 -24 -26 10 -10 19 -23 42 -30 51 -8 12 -8 21 -1 28 8 8 10 4 10 -12 -1 -17 5 -23 19 -23 17 0 21 9 27 59 4 33 7 61 5 62 -5 5 -57 -9 -57 -16 0 -4 9 -17 20 -30 22 -25 24 -30 12 -30 -17 0 -42 61 -46 112 -3 32 -2 43 2 28 5 -14 14 -25 22 -25z m10 35 c0 -5 -4 -10 -10 -10 -5 0 -10 5 -10 10 0 6 5 10 10 10 6 0 10 -4 10 -10z m230 -35 c8 0 17 11 22 25 4 15 5 4 2 -28 -4 -51 -29 -112 -46 -112 -12 0 -10 5 12 30 11 13 20 26 20 30 0 7 -52 21 -57 16 -2 -1 1 -29 5 -62 6 -50 10 -59 27 -59 14 0 20 6 19 23 0 16 2 20 10 12 7 -7 7 -16 -1 -28 -7 -9 -20 -33 -30 -52 -17 -34 -17 -34 -24 -10 -6 24 -7 24 -14 5 -34 -86 -33 -85 -65 -85 -27 0 -33 6 -49 43 -12 28 -15 44 -8 49 13 8 18 38 7 38 -4 0 -6 9 -3 19 6 24 50 35 84 22 13 -5 18 -10 11 -10 -10 -1 -10 -4 2 -16 8 -8 17 -15 20 -15 15 0 3 72 -19 116 -30 59 -30 58 -5 51 15 -4 26 2 38 21 l16 25 6 -24 c3 -13 12 -24 20 -24z m10 35 c0 -5 -4 -10 -10 -10 -5 0 -10 5 -10 10 0 6 5 10 10 10 6 0 10 -4 10 -10z m-910 -78 c0 -4 -9 -8 -20 -8 -11 0 -20 4 -20 8 0 4 9 8 20 8 11 0 20 -4 20 -8z m400 0 c0 -4 -9 -8 -20 -8 -11 0 -20 4 -20 8 0 4 9 8 20 8 11 0 20 -4 20 -8z m400 0 c0 -4 -9 -8 -20 -8 -11 0 -20 4 -20 8 0 4 9 8 20 8 11 0 20 -4 20 -8z m-820 -17 c8 0 21 4 29 10 11 8 13 6 9 -5 -6 -19 -70 -20 -76 -1 -3 10 0 11 9 5 8 -5 21 -9 29 -9z m400 0 c8 0 21 4 29 10 11 8 13 6 9 -5 -6 -19 -70 -20 -76 -1 -3 10 0 11 9 5 8 -5 21 -9 29 -9z m400 0 c8 0 21 4 29 10 11 8 13 6 9 -5 -6 -19 -70 -20 -76 -1 -3 10 0 11 9 5 8 -5 21 -9 29 -9z"/>
 <path d="M433 1125 c5 -14 49 -13 54 1 2 7 -8 11 -27 10 -16 -1 -28 -5 -27 -11z"/>
 <path d="M517 1008 c-29 -31 -30 -45 -2 -34 10 3 13 11 9 18 -4 7 -4 10 1 6 4 -4 14 -3 22 3 10 9 18 8 32 -5 13 -12 19 -14 17 -4 -12 55 -37 61 -79 16z"/>
 <path d="M467 993 c-4 -3 -7 -13 -7 -22 1 -13 3 -13 11 2 11 19 8 33 -4 20z"/>
 <path d="M540 980 c0 -5 9 -10 20 -10 11 0 20 5 20 10 0 6 -9 10 -20 10 -11 0 -20 -4 -20 -10z"/>
 <path d="M515 958 c-4 -9 -1 -29 7 -45 18 -38 58 -38 76 0 13 27 8 71 -6 52 -4 -6 -18 -10 -32 -10 -14 0 -28 4 -32 10 -4 5 -10 2 -13 -7z m50 -27 c3 -5 2 -12 -3 -15 -5 -3 -9 1 -9 9 0 17 3 19 12 6z"/>
 <path d="M1033 1126 c5 -14 49 -15 54 -1 1 6 -11 10 -27 11 -19 1 -29 -3 -27 -10z"/>
 <path d="M935 1023 c-16 -36 -14 -45 6 -27 14 13 22 14 32 5 8 -6 18 -7 22 -3 5 4 5 1 1 -6 -4 -7 -1 -15 9 -18 29 -11 27 3 -5 35 -36 35 -54 39 -65 14z"/>
 <path d="M1040 993 c0 -4 5 -15 10 -23 8 -13 10 -13 10 2 0 9 -4 20 -10 23 -5 3 -10 3 -10 -2z"/>
 <path d="M940 980 c0 -5 9 -10 20 -10 11 0 20 5 20 10 0 6 -9 10 -20 10 -11 0 -20 -4 -20 -10z"/>
 <path d="M915 958 c-11 -28 17 -73 45 -73 17 0 29 9 38 28 13 27 8 71 -6 52 -4 -6 -18 -10 -32 -10 -14 0 -28 4 -32 10 -4 5 -10 2 -13 -7z m50 -27 c3 -5 2 -12 -3 -15 -5 -3 -9 1 -9 9 0 17 3 19 12 6z"/>
 <path d="M1362 1213 c4 -21 55 -24 63 -4 3 7 3 16 0 19 -3 3 -5 0 -5 -6 0 -8 -7 -9 -26 -2 -34 13 -36 13 -32 -7z"/>
 <path d="M1323 1183 c14 -4 17 -14 16 -49 -3 -49 -13 -64 -24 -37 -3 10 -1 19 4 21 18 6 12 41 -7 51 -13 7 -23 6 -30 -1 -16 -16 -15 -45 1 -51 10 -4 10 -7 0 -18 -7 -7 -13 -26 -13 -42 0 -16 -4 -26 -10 -22 -5 3 -10 1 -10 -5 0 -6 6 -13 14 -16 8 -3 17 -17 20 -30 4 -14 11 -24 17 -22 6 2 9 8 7 13 -2 6 -6 9 -9 8 -4 -1 -9 7 -12 17 -4 16 0 20 19 20 19 0 24 5 25 28 2 25 2 25 6 3 3 -13 0 -28 -6 -34 -6 -6 -11 -18 -11 -26 0 -11 4 -10 20 4 15 14 23 15 34 6 11 -9 16 -9 22 0 4 7 2 15 -4 17 -7 2 -11 16 -11 30 2 24 2 24 6 5 2 -13 9 -23 14 -23 5 0 9 -8 9 -17 1 -17 1 -17 14 0 10 12 15 14 18 6 5 -14 28 -4 28 12 0 6 -4 7 -10 4 -6 -4 -10 6 -10 23 0 16 -7 36 -16 43 -14 11 -18 10 -30 -6 -8 -10 -15 -16 -15 -12 -1 4 -3 12 -4 17 -1 6 -3 21 -4 35 -1 15 -7 25 -17 25 -8 0 -13 4 -10 9 6 9 -17 22 -37 20 -7 -1 -4 -3 6 -6z m-8 -43 c3 -5 -3 -10 -15 -10 -12 0 -18 5 -15 10 3 6 10 10 15 10 5 0 12 -4 15 -10z"/>
 <path d="M1376 1181 c-3 -5 0 -13 7 -19 15 -13 42 1 33 17 -9 13 -33 15 -40 2z"/>
 <path d="M1393 1135 c-8 -23 4 -30 22 -12 19 20 19 27 0 27 -9 0 -18 -7 -22 -15z"/>
 <path d="M1440 1136 c0 -6 6 -28 14 -50 11 -32 14 -35 19 -17 3 12 -1 28 -10 36 -8 8 -11 15 -6 15 5 0 15 -6 22 -12 10 -11 12 -8 9 12 -2 18 -9 25 -25 26 -13 1 -23 -4 -23 -10z"/>
 <path d="M1237 1113 c-4 -3 -7 -15 -7 -25 0 -17 1 -18 25 -2 14 9 22 20 19 25 -6 11 -28 12 -37 2z"/>
 <path d="M1400 985 c0 -8 7 -15 15 -15 8 0 15 4 15 9 0 5 -7 11 -15 15 -9 3 -15 0 -15 -9z"/>
 <path d="M1326 971 c-14 -15 -16 -26 -9 -47 19 -57 67 -57 86 0 10 31 -13 66 -43 66 -9 0 -25 -9 -34 -19z"/>
 <path d="M1764 1216 c18 -8 24 -16 17 -20 -14 -9 -14 -26 0 -26 5 0 7 6 3 13 -6 10 -4 10 7 0 7 -7 20 -13 28 -13 11 0 10 5 -5 21 -19 22 -19 22 3 8 18 -11 25 -11 35 -1 16 16 11 19 -57 25 -55 6 -58 5 -31 -7z"/>
 <path d="M1714 1201 c13 -15 14 -20 4 -24 -7 -3 -3 -4 9 -4 29 2 37 24 13 37 -31 17 -45 12 -26 -9z"/>
 <path d="M1828 1166 c-20 -15 -25 -31 -5 -19 6 4 23 8 37 9 14 1 17 0 8 -2 -18 -6 -14 -34 5 -34 6 0 7 3 4 7 -4 3 -2 12 4 19 24 29 -20 46 -53 20z"/>
 <path d="M1782 1158 c-18 -18 -15 -39 5 -31 10 4 14 2 10 -4 -4 -6 0 -14 9 -17 9 -3 12 -2 8 5 -3 6 -9 22 -13 35 -5 20 -9 22 -19 12z"/>
 <path d="M1610 1150 c0 -6 7 -13 15 -17 24 -9 27 1 5 15 -13 8 -20 8 -20 2z"/>
 <path d="M1720 1131 c0 -5 10 -16 23 -24 l22 -16 -22 6 c-36 8 -73 -22 -73 -58 0 -27 2 -30 15 -19 10 9 31 10 64 6 29 -4 52 -2 55 3 4 5 -8 11 -26 13 -33 3 -46 27 -20 36 6 2 12 -1 12 -8 0 -6 -4 -8 -10 -5 -5 3 -10 2 -10 -4 0 -5 9 -9 19 -8 11 0 17 5 15 9 -3 4 0 8 7 8 7 0 3 10 -9 23 -12 13 -22 29 -22 36 0 11 -3 11 -17 0 -11 -10 -14 -10 -9 -1 4 6 2 12 -3 12 -6 0 -11 -4 -11 -9z"/>
 <path d="M1825 1129 c-10 -15 3 -25 16 -12 7 7 7 13 1 17 -6 3 -14 1 -17 -5z"/>
 <path d="M1834 1100 c-26 -10 -38 -38 -24 -55 8 -10 5 -17 -12 -29 -12 -9 -18 -16 -12 -16 5 0 16 6 23 13 11 10 12 7 7 -15 -7 -30 -1 -34 24 -18 10 6 11 10 3 10 -26 0 -12 16 15 17 15 1 21 -1 15 -4 -7 -2 -13 -14 -13 -26 1 -22 1 -22 15 -3 24 31 17 137 -9 135 -6 0 -20 -4 -32 -9z"/>
 <path d="M1690 1007 c0 -10 11 -14 40 -13 50 1 47 20 -3 24 -27 2 -37 -1 -37 -11z"/>
 <path d="M1733 973 c0 -15 59 -12 64 4 3 8 -7 11 -30 10 -18 -1 -34 -7 -34 -14z"/>
 <path d="M1797 954 c-3 -4 -24 -6 -46 -6 -35 1 -39 -2 -31 -16 5 -9 11 -25 14 -34 4 -12 16 -18 35 -18 20 0 31 6 35 18 2 9 7 27 11 40 6 21 -4 30 -18 16z"/>
 <path d="M2088 1223 c-39 -4 -50 -19 -23 -29 8 -4 23 0 33 7 14 11 13 9 -2 -9 -15 -17 -16 -22 -5 -22 8 0 21 6 28 13 11 10 13 10 7 0 -4 -7 -2 -13 3 -13 14 0 14 17 0 26 -7 4 -1 12 17 20 28 12 28 12 4 12 -14 -1 -42 -3 -62 -5z"/>
 <path d="M2168 1209 c-22 -13 -14 -34 15 -36 12 0 16 1 9 4 -10 4 -9 9 4 24 13 15 14 19 3 19 -8 0 -22 -5 -31 -11z"/>
 <path d="M2025 1170 c-4 -6 -2 -17 4 -24 6 -7 8 -16 4 -19 -3 -4 -2 -7 4 -7 19 0 23 28 5 34 -9 2 -6 3 8 2 14 -1 31 -5 38 -9 19 -12 14 4 -5 19 -22 16 -49 18 -58 4z"/>
 <path d="M2104 1135 c-8 -26 -8 -32 3 -28 7 3 10 10 6 16 -4 6 0 8 10 4 20 -8 23 15 4 31 -9 8 -15 3 -23 -23z"/>
 <path d="M2276 1144 c-17 -12 -17 -14 -4 -14 9 0 20 5 23 11 11 17 2 18 -19 3z"/>
 <path d="M2066 1132 c-3 -6 -1 -14 5 -17 15 -10 25 3 12 16 -7 7 -13 7 -17 1z"/>
 <path d="M2150 1129 c0 -7 -10 -23 -22 -36 -12 -13 -16 -23 -9 -23 7 0 10 -4 7 -8 -2 -4 4 -9 15 -9 10 -1 19 3 19 8 0 6 -4 7 -10 4 -5 -3 -10 -1 -10 5 0 7 6 10 13 8 25 -9 12 -33 -21 -36 -18 -2 -30 -8 -26 -13 3 -5 26 -7 55 -3 33 4 54 3 64 -6 13 -11 15 -8 15 19 0 36 -37 66 -73 58 l-22 -6 23 16 c23 16 29 33 11 33 -5 0 -7 -6 -3 -12 5 -9 2 -9 -9 1 -14 11 -17 11 -17 0z"/>
 <path d="M2026 1088 c-10 -40 -6 -94 9 -114 14 -19 14 -19 15 3 0 12 -6 24 -12 26 -7 3 -1 5 15 4 26 -1 40 -17 15 -17 -9 0 -8 -4 2 -10 25 -16 31 -12 24 18 -5 22 -4 25 7 15 7 -7 18 -13 23 -13 6 0 0 7 -12 16 -17 12 -20 19 -12 29 15 18 2 45 -27 56 -35 13 -40 12 -47 -13z"/>
 <path d="M2147 1013 c-14 -13 -6 -18 33 -19 28 -1 40 3 40 12 0 14 -60 20 -73 7z"/>
 <path d="M2113 977 c5 -16 64 -19 64 -4 0 7 -16 13 -34 14 -23 1 -33 -2 -30 -10z"/>
 <path d="M2093 943 c3 -10 8 -28 12 -40 8 -29 63 -33 71 -5 3 9 10 25 15 34 7 15 4 17 -24 16 -17 0 -43 2 -55 6 -20 7 -23 5 -19 -11z"/>
 <path d="M620 1170 c0 -9 25 -20 46 -20 28 0 13 25 -16 26 -17 1 -30 -2 -30 -6z"/>
 <path d="M597 1150 c3 -11 9 -20 14 -20 11 0 11 3 3 24 -9 23 -23 20 -17 -4z"/>
 <path d="M637 993 c-3 -5 1 -14 9 -21 12 -10 14 -10 14 2 0 17 -16 30 -23 19z"/>
 <path d="M840 1163 c0 -14 19 -17 44 -7 26 10 18 21 -14 20 -17 -1 -30 -7 -30 -13z"/>
 <path d="M906 1154 c-8 -21 -8 -24 3 -24 5 0 11 9 14 20 6 24 -8 27 -17 4z"/>
 <path d="M864 985 c-9 -21 -2 -26 13 -10 8 9 9 16 3 20 -6 3 -13 -1 -16 -10z"/>
 <path d="M620 770 c0 -9 25 -20 46 -20 28 0 13 25 -16 26 -17 1 -30 -2 -30 -6z"/>
 <path d="M597 750 c3 -11 9 -20 14 -20 11 0 11 3 3 24 -9 23 -23 20 -17 -4z"/>
 <path d="M433 725 c5 -14 49 -13 54 1 2 7 -8 11 -27 10 -16 -1 -28 -5 -27 -11z"/>
 <path d="M527 615 c-11 -15 -26 -24 -39 -22 -15 1 -23 -4 -25 -18 -4 -19 -3 -19 8 -1 8 14 13 15 19 6 10 -17 44 -4 34 12 -4 7 -4 10 1 6 4 -4 14 -3 22 3 9 8 17 8 26 0 8 -6 18 -7 22 -3 5 4 5 1 1 -6 -10 -16 24 -29 34 -12 6 9 11 8 19 -6 11 -18 12 -18 8 1 -2 14 -10 19 -24 18 -13 -2 -30 7 -41 22 -25 31 -42 31 -65 0z"/>
 <path d="M540 580 c0 -5 9 -10 20 -10 11 0 20 5 20 10 0 6 -9 10 -20 10 -11 0 -20 -4 -20 -10z"/>
 <path d="M515 558 c-11 -28 17 -73 45 -73 17 0 29 9 38 28 13 27 8 71 -6 52 -4 -6 -18 -10 -32 -10 -14 0 -28 4 -32 10 -4 5 -10 2 -13 -7z m50 -27 c3 -5 2 -12 -3 -15 -5 -3 -9 1 -9 9 0 17 3 19 12 6z"/>
 <path d="M840 763 c0 -14 19 -17 44 -7 26 10 18 21 -14 20 -17 -1 -30 -7 -30 -13z"/>
 <path d="M906 754 c-8 -21 -8 -24 3 -24 5 0 11 9 14 20 6 24 -8 27 -17 4z"/>
 <path d="M1033 726 c5 -14 49 -15 54 -1 1 6 -11 10 -27 11 -19 1 -29 -3 -27 -10z"/>
 <path d="M927 615 c-11 -15 -26 -24 -39 -22 -15 1 -23 -4 -25 -18 -4 -19 -3 -19 8 -1 8 14 13 15 19 6 10 -17 44 -4 34 12 -4 7 -4 10 1 6 4 -4 14 -3 22 3 9 8 17 8 26 0 8 -6 18 -7 22 -3 5 4 5 1 1 -6 -10 -16 24 -29 34 -12 6 9 11 8 19 -6 11 -18 12 -18 8 1 -2 14 -10 19 -24 18 -13 -2 -30 7 -41 22 -25 31 -42 31 -65 0z"/>
 <path d="M940 580 c0 -5 9 -10 20 -10 11 0 20 5 20 10 0 6 -9 10 -20 10 -11 0 -20 -4 -20 -10z"/>
 <path d="M915 558 c-11 -28 17 -73 45 -73 17 0 29 9 38 28 13 27 8 71 -6 52 -4 -6 -18 -10 -32 -10 -14 0 -28 4 -32 10 -4 5 -10 2 -13 -7z m50 -27 c3 -5 2 -12 -3 -15 -5 -3 -9 1 -9 9 0 17 3 19 12 6z"/>
 <path d="M1291 825 c-2 -32 61 -43 67 -12 4 20 2 20 -32 8 -17 -7 -26 -7 -30 2 -2 7 -5 8 -5 2z"/>
 <path d="M1304 779 c-9 -16 18 -30 33 -17 7 6 10 14 7 19 -7 13 -31 11 -40 -2z"/>
 <path d="M1372 783 c-6 -2 -10 -9 -6 -14 3 -5 -2 -9 -10 -9 -10 0 -16 -10 -17 -25 -1 -14 -3 -29 -4 -35 -1 -5 -3 -13 -4 -17 0 -4 -7 2 -15 12 -12 16 -16 17 -30 6 -9 -7 -16 -27 -16 -43 0 -17 -4 -27 -10 -23 -5 3 -10 2 -10 -4 0 -16 23 -26 28 -12 3 8 8 6 18 -6 13 -17 13 -17 14 0 0 9 4 17 9 17 5 0 12 10 14 23 4 19 4 19 6 -5 0 -14 -4 -28 -11 -30 -6 -2 -8 -10 -4 -17 6 -9 11 -9 22 0 11 9 19 8 34 -6 16 -14 20 -15 20 -4 0 8 -5 20 -11 26 -6 6 -9 21 -6 34 4 22 4 22 6 -3 1 -23 6 -28 25 -28 19 0 23 -4 19 -20 -3 -10 -8 -18 -12 -17 -3 1 -7 -2 -9 -8 -2 -5 1 -11 7 -13 6 -2 13 8 17 22 3 13 12 27 20 30 8 3 14 10 14 16 0 6 -4 8 -10 5 -6 -4 -10 6 -10 22 0 16 -6 35 -12 42 -10 11 -10 14 0 18 15 6 16 35 0 51 -7 7 -17 8 -30 1 -19 -10 -25 -45 -7 -51 5 -2 7 -11 4 -21 -11 -27 -21 -12 -24 37 -1 35 2 45 16 49 12 3 13 5 3 5 -8 0 -21 -2 -28 -5z m63 -43 c3 -5 -3 -10 -15 -10 -12 0 -18 5 -15 10 3 6 10 10 15 10 5 0 12 -4 15 -10z"/>
 <path d="M1236 743 c-3 -4 -6 -15 -6 -27 0 -15 3 -17 12 -8 7 7 16 12 21 12 5 0 2 -7 -6 -15 -9 -8 -13 -24 -10 -36 5 -18 8 -15 19 17 8 22 14 44 14 49 0 12 -34 17 -44 8z"/>
 <path d="M1290 744 c0 -10 31 -36 37 -31 10 10 -6 37 -22 37 -8 0 -15 -3 -15 -6z"/>
 <path d="M1446 712 c-3 -6 6 -17 20 -27 25 -16 26 -16 22 7 -3 23 -31 37 -42 20z"/>
 <path d="M1303 593 c-18 -7 -16 -23 2 -23 8 0 15 7 15 15 0 8 -1 15 -2 14 -2 0 -9 -3 -15 -6z"/>
 <path d="M1326 571 c-14 -15 -16 -26 -9 -47 19 -57 67 -57 86 0 10 31 -13 66 -43 66 -9 0 -25 -9 -34 -19z"/>
 <path d="M1693 819 c9 -6 21 -8 26 -5 5 3 12 -1 15 -10 4 -11 13 -14 28 -11 16 5 18 3 9 -6 -9 -9 -16 -9 -31 1 -13 8 -20 8 -20 2 0 -12 48 -32 60 -25 4 3 11 -7 15 -22 5 -20 2 -31 -12 -41 -15 -11 -16 -14 -3 -22 13 -9 13 -10 0 -11 -8 -1 -18 -1 -22 0 -5 0 -8 -3 -8 -8 0 -5 13 -8 29 -7 20 0 27 5 23 15 -3 8 6 24 23 36 25 21 28 54 3 39 -7 -4 -8 -2 -4 4 9 15 52 -2 48 -20 -3 -10 -1 -10 8 -1 17 16 5 30 -29 38 -15 3 -38 15 -49 25 -12 11 -31 21 -44 21 -19 1 -18 3 7 9 23 5 17 7 -30 8 -44 0 -55 -2 -42 -9z"/>
 <path d="M1829 801 c9 -6 10 -10 2 -14 -8 -4 -8 -5 1 -3 20 4 21 26 1 26 -14 0 -15 -2 -4 -9z"/>
 <path d="M1695 750 c-9 -14 5 -32 20 -26 8 3 19 -2 27 -11 11 -14 11 -15 -2 -11 -27 9 -70 -30 -70 -64 0 -26 2 -29 15 -18 10 9 31 10 64 6 29 -4 52 -2 55 3 4 5 -8 11 -26 13 -21 2 -33 8 -33 18 0 8 5 14 11 13 14 -2 11 34 -4 49 -7 7 -12 16 -12 22 0 5 6 2 13 -9 9 -11 19 -15 26 -10 7 4 9 11 4 16 -14 14 -81 21 -88 9z"/>
 <path d="M1620 742 c0 -6 5 -14 10 -17 14 -9 50 4 50 17 0 6 -6 6 -15 -2 -12 -10 -18 -10 -30 0 -9 8 -15 9 -15 2z"/>
 <path d="M1833 700 c-18 -7 -21 -15 -18 -39 3 -23 -2 -35 -18 -46 -12 -8 -17 -15 -11 -15 5 0 16 6 23 13 11 10 12 7 7 -15 -7 -30 -1 -34 24 -18 10 6 11 10 3 10 -26 0 -12 16 15 17 15 1 21 -1 15 -4 -7 -2 -13 -14 -13 -26 1 -22 1 -22 15 -3 24 31 17 137 -9 135 -6 0 -21 -4 -33 -9z"/>
 <path d="M1690 607 c0 -10 11 -14 40 -13 50 1 47 20 -3 24 -27 2 -37 -1 -37 -11z"/>
 <path d="M1733 573 c0 -15 59 -12 64 4 3 8 -7 11 -30 10 -18 -1 -34 -7 -34 -14z"/>
 <path d="M1797 554 c-3 -4 -24 -6 -46 -6 -35 1 -39 -2 -31 -16 5 -9 11 -25 14 -34 4 -12 16 -18 35 -18 20 0 31 6 35 18 2 9 7 27 11 40 6 21 -4 30 -18 16z"/>
 <path d="M2145 820 c25 -6 26 -8 7 -9 -13 0 -32 -10 -44 -21 -11 -10 -34 -22 -49 -25 -34 -8 -46 -22 -29 -38 9 -9 11 -9 8 1 -4 18 39 35 48 20 4 -6 3 -8 -4 -4 -25 15 -22 -18 3 -39 17 -12 26 -28 23 -36 -4 -10 3 -15 23 -15 16 -1 29 2 29 7 0 5 -3 8 -7 8 -5 -1 -15 -1 -23 0 -13 1 -13 2 0 11 13 8 12 11 -3 22 -14 10 -17 21 -12 41 4 15 11 25 15 22 12 -7 60 13 60 25 0 6 -7 6 -20 -2 -15 -10 -22 -10 -31 -1 -9 9 -7 11 9 6 15 -3 24 0 28 11 3 9 10 13 15 10 5 -3 17 -1 26 5 13 7 2 9 -42 9 -47 -1 -53 -3 -30 -8z"/>
 <path d="M2062 798 c2 -6 11 -13 19 -16 12 -3 12 -2 0 6 -11 8 -11 10 0 15 10 4 8 6 -4 6 -10 1 -17 -4 -15 -11z"/>
 <path d="M2140 748 c-18 -7 -21 -11 -11 -21 10 -9 15 -8 27 7 8 11 14 15 14 10 0 -6 -5 -15 -12 -22 -15 -15 -18 -51 -4 -49 6 1 11 -5 11 -13 0 -10 -12 -16 -33 -18 -18 -2 -30 -8 -26 -13 3 -5 26 -7 55 -3 33 4 54 3 64 -6 13 -11 15 -8 15 18 0 34 -43 73 -70 64 -12 -4 -13 -2 -2 9 7 8 20 14 30 14 9 0 17 7 17 15 0 17 -39 22 -75 8z"/>
 <path d="M2230 742 c0 -13 36 -26 50 -17 5 3 10 11 10 17 0 7 -6 6 -15 -2 -12 -10 -18 -10 -30 0 -9 8 -15 8 -15 2z"/>
 <path d="M2026 688 c-10 -40 -6 -94 9 -114 14 -19 14 -19 15 3 0 12 -6 24 -12 26 -7 3 -1 5 15 4 26 -1 40 -17 15 -17 -9 0 -8 -4 2 -10 25 -16 31 -12 24 18 -5 22 -4 25 7 15 7 -7 18 -13 23 -13 6 0 1 7 -11 15 -16 11 -21 23 -18 45 3 25 0 33 -21 40 -36 14 -41 13 -48 -12z"/>
 <path d="M2147 613 c-14 -13 -6 -18 33 -19 28 -1 40 3 40 12 0 14 -60 20 -73 7z"/>
 <path d="M2113 577 c5 -16 64 -19 64 -4 0 7 -16 13 -34 14 -23 1 -33 -2 -30 -10z"/>
 <path d="M2093 543 c3 -10 8 -28 12 -40 8 -29 63 -33 71 -5 3 9 10 25 15 34 7 15 4 17 -24 16 -17 0 -43 2 -55 6 -20 7 -23 5 -19 -11z"/>
 <path d="M1763 428 c2 -7 12 -13 22 -13 10 0 20 6 23 13 2 7 -6 12 -23 12 -17 0 -25 -5 -22 -12z"/>
 <path d="M1640 410 c0 -6 7 -13 15 -17 24 -9 27 1 5 15 -13 8 -20 8 -20 2z"/>
 <path d="M1805 360 c-7 -11 -1 -13 30 -11 19 1 19 0 1 -7 -12 -5 -15 -11 -9 -15 14 -9 37 19 28 33 -8 13 -42 13 -50 0z"/>
 <path d="M1664 345 c-6 -13 -9 -14 -16 -3 -8 10 -9 10 -5 -2 2 -8 15 -15 30 -15 15 -1 32 -7 39 -14 11 -11 10 -13 -2 -9 -27 9 -70 -30 -70 -64 0 -26 2 -29 15 -18 10 9 31 10 64 6 29 -4 52 -2 55 3 4 5 -8 11 -26 13 -35 3 -35 3 -21 69 4 19 0 28 -14 33 -10 3 -24 9 -30 12 -7 3 -16 -2 -19 -11z"/>
 <path d="M1792 323 c-5 -10 -8 -35 -7 -56 2 -29 -3 -42 -19 -52 -11 -8 -16 -15 -10 -15 5 0 16 6 23 13 11 10 12 7 7 -15 -7 -30 -1 -34 24 -18 10 6 11 10 3 10 -26 0 -12 16 15 17 15 1 21 -1 15 -4 -7 -2 -13 -14 -13 -26 1 -22 1 -22 15 -3 15 20 19 74 9 114 -6 20 -11 22 -38 17 -29 -6 -30 -6 -12 8 13 9 15 16 8 21 -6 3 -15 -1 -20 -11z"/>
 <path d="M1660 207 c0 -10 11 -14 40 -13 50 1 47 20 -3 24 -27 2 -37 -1 -37 -11z"/>
 <path d="M1703 173 c0 -15 59 -12 64 4 3 8 -7 11 -30 10 -18 -1 -34 -7 -34 -14z"/>
 <path d="M1767 154 c-3 -4 -24 -6 -46 -6 -35 1 -39 -2 -31 -16 5 -9 11 -25 14 -34 7 -25 63 -25 70 0 2 9 7 27 11 40 6 21 -4 30 -18 16z"/>
 <path d="M2103 428 c2 -7 12 -13 22 -13 10 0 20 6 23 13 2 7 -6 12 -23 12 -17 0 -25 -5 -22 -12z"/>
 <path d="M2246 404 c-17 -12 -17 -14 -4 -14 9 0 20 5 23 11 11 17 2 18 -19 3z"/>
 <path d="M2055 360 c-9 -14 14 -42 28 -33 6 4 3 10 -9 15 -17 7 -17 7 3 5 12 -1 23 3 25 8 4 14 -39 19 -47 5z"/>
 <path d="M2202 346 c-18 -8 -22 -17 -18 -36 13 -65 13 -65 -22 -68 -18 -2 -30 -8 -26 -13 3 -5 26 -7 55 -3 33 4 54 3 64 -6 13 -11 15 -8 15 18 0 34 -43 73 -70 64 -12 -4 -13 -2 -2 9 7 7 24 13 39 14 15 0 28 7 30 15 4 12 3 12 -5 2 -7 -11 -10 -11 -15 2 -7 18 -12 18 -45 2z"/>
 <path d="M2096 332 c-3 -6 2 -16 11 -22 15 -9 12 -10 -13 -5 -27 5 -32 3 -38 -17 -10 -40 -6 -94 9 -114 14 -19 14 -19 15 3 0 12 -6 24 -12 26 -7 3 -1 5 15 4 26 -1 40 -17 15 -17 -9 0 -8 -4 2 -10 25 -16 31 -12 24 18 -5 22 -4 25 7 15 7 -7 18 -13 23 -13 6 0 1 7 -11 15 -16 11 -20 23 -18 55 2 41 -16 82 -29 62z"/>
 <path d="M2177 213 c-14 -13 -6 -18 33 -19 28 -1 40 3 40 12 0 14 -60 20 -73 7z"/>
 <path d="M2143 177 c5 -16 64 -19 64 -4 0 7 -16 13 -34 14 -23 1 -33 -2 -30 -10z"/>
 <path d="M2123 143 c3 -10 8 -28 12 -40 8 -29 63 -33 71 -5 3 9 10 25 15 34 7 15 4 17 -24 16 -17 0 -43 2 -55 6 -20 7 -23 5 -19 -11z"/>
 <path d="M1314 421 c19 -7 19 -8 -2 -13 -13 -4 -22 -2 -22 5 0 6 -2 8 -5 6 -2 -3 -2 -15 2 -27 7 -27 40 -27 57 1 12 19 -5 37 -34 36 -10 0 -8 -3 4 -8z"/>
 <path d="M1380 420 c-12 -7 -12 -13 -4 -27 17 -28 50 -28 57 -1 4 12 4 24 2 27 -3 2 -5 0 -5 -6 0 -7 -9 -9 -22 -5 -21 5 -21 6 -2 13 12 5 14 8 4 8 -8 0 -22 -4 -30 -9z"/>
 <path d="M1339 348 c-2 -62 -11 -83 -22 -53 -4 8 -2 15 4 15 6 0 9 10 7 23 -4 30 -51 32 -56 2 -2 -11 -10 -25 -19 -32 -10 -8 -12 -19 -7 -35 7 -22 8 -21 16 10 5 17 14 32 20 32 9 0 9 -3 0 -12 -7 -7 -12 -25 -12 -41 0 -16 -4 -26 -10 -22 -5 3 -10 2 -10 -4 0 -17 22 -24 32 -10 7 11 9 9 5 -7 -6 -27 7 -49 22 -40 15 10 14 26 -1 22 -7 -1 -10 -1 -5 1 4 3 7 11 7 19 0 8 4 14 9 14 5 0 12 10 14 23 4 19 4 19 6 -5 0 -15 -4 -30 -9 -33 -6 -4 -8 -11 -4 -16 4 -6 11 -6 20 2 11 9 17 9 28 0 9 -8 16 -8 20 -2 4 5 2 12 -4 16 -5 3 -9 18 -9 33 2 24 2 24 6 5 2 -13 9 -23 14 -23 5 0 9 -6 9 -14 0 -8 3 -16 8 -19 4 -2 1 -2 -5 -1 -16 4 -17 -12 -2 -22 15 -9 28 13 22 40 -4 16 -2 18 5 7 10 -14 32 -7 32 10 0 6 -4 7 -10 4 -6 -4 -10 6 -10 22 0 16 -5 34 -12 41 -9 9 -9 12 0 12 6 0 15 -15 20 -32 8 -31 9 -32 16 -10 5 16 3 27 -7 35 -9 7 -17 21 -19 32 -5 30 -52 28 -56 -2 -2 -13 1 -23 7 -23 6 0 8 -7 4 -15 -11 -30 -20 -9 -22 53 -1 28 -4 33 -11 22 -9 -13 -11 -13 -20 0 -7 11 -10 6 -11 -22z m-24 -18 c3 -5 -3 -10 -15 -10 -12 0 -18 5 -15 10 3 6 10 10 15 10 5 0 12 -4 15 -10z m120 0 c3 -5 -3 -10 -15 -10 -12 0 -18 5 -15 10 3 6 10 10 15 10 5 0 12 -4 15 -10z"/>
 <path d="M1326 171 c-21 -23 -12 -67 17 -85 39 -25 84 49 51 85 -9 10 -25 19 -34 19 -9 0 -25 -9 -34 -19z"/>
 <path d="M23 355 c5 -14 49 -13 54 1 2 7 -8 11 -27 10 -16 -1 -28 -5 -27 -11z"/>
 <path d="M107 363 c-4 -3 -7 -11 -7 -17 0 -6 5 -5 12 2 6 6 9 14 7 17 -3 3 -9 2 -12 -2z"/>
 <path d="M200 361 c0 -5 5 -13 10 -16 6 -3 10 -2 10 4 0 5 -4 13 -10 16 -5 3 -10 2 -10 -4z"/>
 <path d="M243 356 c5 -14 49 -15 54 -1 1 6 -11 10 -27 11 -19 1 -29 -3 -27 -10z"/>
 <path d="M127 225 c-11 -15 -26 -24 -39 -22 -15 1 -23 -4 -25 -18 -4 -19 -3 -19 8 -1 8 14 13 15 19 6 10 -17 44 -4 34 12 -4 7 -4 10 1 6 4 -4 14 -3 22 3 9 8 17 8 26 0 8 -6 18 -7 22 -3 5 4 5 1 1 -6 -10 -16 24 -29 34 -12 6 9 11 8 19 -6 11 -18 12 -18 8 1 -2 14 -10 19 -24 18 -13 -2 -30 7 -41 22 -25 31 -42 31 -65 0z"/>
 <path d="M140 190 c0 -5 9 -10 20 -10 11 0 20 5 20 10 0 6 -9 10 -20 10 -11 0 -20 -4 -20 -10z"/>
 <path d="M115 168 c-11 -28 17 -73 45 -73 17 0 29 9 38 28 13 27 8 71 -6 52 -4 -6 -18 -10 -32 -10 -14 0 -28 4 -32 10 -4 5 -10 2 -13 -7z m50 -27 c3 -5 2 -12 -3 -15 -5 -3 -9 1 -9 9 0 17 3 19 12 6z"/>
 <path d="M423 355 c5 -14 49 -13 54 1 2 7 -8 11 -27 10 -16 -1 -28 -5 -27 -11z"/>
 <path d="M507 363 c-4 -3 -7 -11 -7 -17 0 -6 5 -5 12 2 6 6 9 14 7 17 -3 3 -9 2 -12 -2z"/>
 <path d="M517 218 c-29 -31 -30 -45 -2 -34 10 3 13 11 9 18 -4 7 -4 10 1 6 4 -4 14 -3 22 3 10 9 18 8 32 -5 13 -12 19 -14 17 -4 -12 55 -37 61 -79 16z"/>
 <path d="M467 203 c-4 -3 -7 -13 -7 -22 1 -13 3 -13 11 2 11 19 8 33 -4 20z"/>
 <path d="M540 190 c0 -5 9 -10 20 -10 11 0 20 5 20 10 0 6 -9 10 -20 10 -11 0 -20 -4 -20 -10z"/>
 <path d="M515 168 c-4 -9 -1 -29 7 -45 18 -38 58 -38 76 0 13 27 8 71 -6 52 -4 -6 -18 -10 -32 -10 -14 0 -28 4 -32 10 -4 5 -10 2 -13 -7z m50 -27 c3 -5 2 -12 -3 -15 -5 -3 -9 1 -9 9 0 17 3 19 12 6z"/>
 <path d="M600 361 c0 -5 5 -13 10 -16 6 -3 10 -2 10 4 0 5 -4 13 -10 16 -5 3 -10 2 -10 -4z"/>
 <path d="M643 356 c5 -14 49 -15 54 -1 1 6 -11 10 -27 11 -19 1 -29 -3 -27 -10z"/>
 <path d="M637 203 c-3 -5 1 -14 9 -21 12 -10 14 -10 14 2 0 17 -16 30 -23 19z"/>
 <path d="M823 355 c5 -14 49 -13 54 1 2 7 -8 11 -27 10 -16 -1 -28 -5 -27 -11z"/>
 <path d="M907 363 c-4 -3 -7 -11 -7 -17 0 -6 5 -5 12 2 6 6 9 14 7 17 -3 3 -9 2 -12 -2z"/>
 <path d="M864 195 c-9 -21 -2 -26 13 -10 8 9 9 16 3 20 -6 3 -13 -1 -16 -10z"/>
 <path d="M1000 361 c0 -5 5 -13 10 -16 6 -3 10 -2 10 4 0 5 -4 13 -10 16 -5 3 -10 2 -10 -4z"/>
 <path d="M1043 356 c5 -14 49 -15 54 -1 1 6 -11 10 -27 11 -19 1 -29 -3 -27 -10z"/>
 <path d="M935 233 c-16 -36 -14 -45 6 -27 14 13 22 14 32 5 8 -6 18 -7 22 -3 5 4 5 1 1 -6 -4 -7 -1 -15 9 -18 29 -11 27 3 -5 35 -36 35 -54 39 -65 14z"/>
 <path d="M1040 203 c0 -4 5 -15 10 -23 8 -13 10 -13 10 2 0 9 -4 20 -10 23 -5 3 -10 3 -10 -2z"/>
 <path d="M940 190 c0 -5 9 -10 20 -10 11 0 20 5 20 10 0 6 -9 10 -20 10 -11 0 -20 -4 -20 -10z"/>
 <path d="M915 168 c-11 -28 17 -73 45 -73 17 0 29 9 38 28 13 27 8 71 -6 52 -4 -6 -18 -10 -32 -10 -14 0 -28 4 -32 10 -4 5 -10 2 -13 -7z m50 -27 c3 -5 2 -12 -3 -15 -5 -3 -9 1 -9 9 0 17 3 19 12 6z"/>
 </g>

</svg>
